<mxfile host="app.diagrams.net" agent="Mozilla/5.0 (Windows NT 10.0; Win64; x64) AppleWebKit/537.36 (KHTML, like Gecko) Chrome/128.0.0.0 Safari/537.36 OPR/114.0.0.0" version="24.8.0">
  <diagram name="Page-1" id="8un23hDuiLWD_JSRGmDA">
    <mxGraphModel dx="5400" dy="2460" grid="0" gridSize="10" guides="1" tooltips="1" connect="1" arrows="1" fold="1" page="0" pageScale="1" pageWidth="827" pageHeight="1169" math="0" shadow="0">
      <root>
        <mxCell id="0" />
        <mxCell id="1" parent="0" />
        <mxCell id="NT3E-wE3VGaJPyhKOF_r-4" value="Products" style="shape=table;startSize=30;container=1;collapsible=1;childLayout=tableLayout;fixedRows=1;rowLines=0;fontStyle=1;align=center;resizeLast=1;html=1;" vertex="1" parent="1">
          <mxGeometry x="330" y="440" width="200" height="180" as="geometry">
            <mxRectangle y="400" width="82" height="30" as="alternateBounds" />
          </mxGeometry>
        </mxCell>
        <mxCell id="NT3E-wE3VGaJPyhKOF_r-5" value="" style="shape=tableRow;horizontal=0;startSize=0;swimlaneHead=0;swimlaneBody=0;fillColor=none;collapsible=0;dropTarget=0;points=[[0,0.5],[1,0.5]];portConstraint=eastwest;top=0;left=0;right=0;bottom=1;" vertex="1" parent="NT3E-wE3VGaJPyhKOF_r-4">
          <mxGeometry y="30" width="200" height="30" as="geometry" />
        </mxCell>
        <mxCell id="NT3E-wE3VGaJPyhKOF_r-6" value="PK" style="shape=partialRectangle;connectable=0;fillColor=none;top=0;left=0;bottom=0;right=0;fontStyle=1;overflow=hidden;whiteSpace=wrap;html=1;" vertex="1" parent="NT3E-wE3VGaJPyhKOF_r-5">
          <mxGeometry width="30" height="30" as="geometry">
            <mxRectangle width="30" height="30" as="alternateBounds" />
          </mxGeometry>
        </mxCell>
        <mxCell id="NT3E-wE3VGaJPyhKOF_r-7" value="Product_ID (INTEGER)" style="shape=partialRectangle;connectable=0;fillColor=none;top=0;left=0;bottom=0;right=0;align=left;spacingLeft=6;fontStyle=5;overflow=hidden;whiteSpace=wrap;html=1;" vertex="1" parent="NT3E-wE3VGaJPyhKOF_r-5">
          <mxGeometry x="30" width="170" height="30" as="geometry">
            <mxRectangle width="170" height="30" as="alternateBounds" />
          </mxGeometry>
        </mxCell>
        <mxCell id="NT3E-wE3VGaJPyhKOF_r-8" value="" style="shape=tableRow;horizontal=0;startSize=0;swimlaneHead=0;swimlaneBody=0;fillColor=none;collapsible=0;dropTarget=0;points=[[0,0.5],[1,0.5]];portConstraint=eastwest;top=0;left=0;right=0;bottom=0;" vertex="1" parent="NT3E-wE3VGaJPyhKOF_r-4">
          <mxGeometry y="60" width="200" height="30" as="geometry" />
        </mxCell>
        <mxCell id="NT3E-wE3VGaJPyhKOF_r-9" value="" style="shape=partialRectangle;connectable=0;fillColor=none;top=0;left=0;bottom=0;right=0;editable=1;overflow=hidden;whiteSpace=wrap;html=1;" vertex="1" parent="NT3E-wE3VGaJPyhKOF_r-8">
          <mxGeometry width="30" height="30" as="geometry">
            <mxRectangle width="30" height="30" as="alternateBounds" />
          </mxGeometry>
        </mxCell>
        <mxCell id="NT3E-wE3VGaJPyhKOF_r-10" value="Product_Name (VARCHAR)" style="shape=partialRectangle;connectable=0;fillColor=none;top=0;left=0;bottom=0;right=0;align=left;spacingLeft=6;overflow=hidden;whiteSpace=wrap;html=1;" vertex="1" parent="NT3E-wE3VGaJPyhKOF_r-8">
          <mxGeometry x="30" width="170" height="30" as="geometry">
            <mxRectangle width="170" height="30" as="alternateBounds" />
          </mxGeometry>
        </mxCell>
        <mxCell id="NT3E-wE3VGaJPyhKOF_r-11" value="" style="shape=tableRow;horizontal=0;startSize=0;swimlaneHead=0;swimlaneBody=0;fillColor=none;collapsible=0;dropTarget=0;points=[[0,0.5],[1,0.5]];portConstraint=eastwest;top=0;left=0;right=0;bottom=0;" vertex="1" parent="NT3E-wE3VGaJPyhKOF_r-4">
          <mxGeometry y="90" width="200" height="30" as="geometry" />
        </mxCell>
        <mxCell id="NT3E-wE3VGaJPyhKOF_r-12" value="" style="shape=partialRectangle;connectable=0;fillColor=none;top=0;left=0;bottom=0;right=0;editable=1;overflow=hidden;whiteSpace=wrap;html=1;" vertex="1" parent="NT3E-wE3VGaJPyhKOF_r-11">
          <mxGeometry width="30" height="30" as="geometry">
            <mxRectangle width="30" height="30" as="alternateBounds" />
          </mxGeometry>
        </mxCell>
        <mxCell id="NT3E-wE3VGaJPyhKOF_r-13" value="Description (TEXT)" style="shape=partialRectangle;connectable=0;fillColor=none;top=0;left=0;bottom=0;right=0;align=left;spacingLeft=6;overflow=hidden;whiteSpace=wrap;html=1;" vertex="1" parent="NT3E-wE3VGaJPyhKOF_r-11">
          <mxGeometry x="30" width="170" height="30" as="geometry">
            <mxRectangle width="170" height="30" as="alternateBounds" />
          </mxGeometry>
        </mxCell>
        <mxCell id="NT3E-wE3VGaJPyhKOF_r-14" value="" style="shape=tableRow;horizontal=0;startSize=0;swimlaneHead=0;swimlaneBody=0;fillColor=none;collapsible=0;dropTarget=0;points=[[0,0.5],[1,0.5]];portConstraint=eastwest;top=0;left=0;right=0;bottom=0;" vertex="1" parent="NT3E-wE3VGaJPyhKOF_r-4">
          <mxGeometry y="120" width="200" height="30" as="geometry" />
        </mxCell>
        <mxCell id="NT3E-wE3VGaJPyhKOF_r-15" value="" style="shape=partialRectangle;connectable=0;fillColor=none;top=0;left=0;bottom=0;right=0;editable=1;overflow=hidden;whiteSpace=wrap;html=1;" vertex="1" parent="NT3E-wE3VGaJPyhKOF_r-14">
          <mxGeometry width="30" height="30" as="geometry">
            <mxRectangle width="30" height="30" as="alternateBounds" />
          </mxGeometry>
        </mxCell>
        <mxCell id="NT3E-wE3VGaJPyhKOF_r-16" value="Price (REAL)" style="shape=partialRectangle;connectable=0;fillColor=none;top=0;left=0;bottom=0;right=0;align=left;spacingLeft=6;overflow=hidden;whiteSpace=wrap;html=1;" vertex="1" parent="NT3E-wE3VGaJPyhKOF_r-14">
          <mxGeometry x="30" width="170" height="30" as="geometry">
            <mxRectangle width="170" height="30" as="alternateBounds" />
          </mxGeometry>
        </mxCell>
        <mxCell id="NT3E-wE3VGaJPyhKOF_r-20" value="" style="shape=tableRow;horizontal=0;startSize=0;swimlaneHead=0;swimlaneBody=0;fillColor=none;collapsible=0;dropTarget=0;points=[[0,0.5],[1,0.5]];portConstraint=eastwest;top=0;left=0;right=0;bottom=0;" vertex="1" parent="NT3E-wE3VGaJPyhKOF_r-4">
          <mxGeometry y="150" width="200" height="30" as="geometry" />
        </mxCell>
        <mxCell id="NT3E-wE3VGaJPyhKOF_r-21" value="" style="shape=partialRectangle;connectable=0;fillColor=none;top=0;left=0;bottom=0;right=0;editable=1;overflow=hidden;whiteSpace=wrap;html=1;" vertex="1" parent="NT3E-wE3VGaJPyhKOF_r-20">
          <mxGeometry width="30" height="30" as="geometry">
            <mxRectangle width="30" height="30" as="alternateBounds" />
          </mxGeometry>
        </mxCell>
        <mxCell id="NT3E-wE3VGaJPyhKOF_r-22" value="Status (TEXT)" style="shape=partialRectangle;connectable=0;fillColor=none;top=0;left=0;bottom=0;right=0;align=left;spacingLeft=6;overflow=hidden;whiteSpace=wrap;html=1;" vertex="1" parent="NT3E-wE3VGaJPyhKOF_r-20">
          <mxGeometry x="30" width="170" height="30" as="geometry">
            <mxRectangle width="170" height="30" as="alternateBounds" />
          </mxGeometry>
        </mxCell>
        <mxCell id="NT3E-wE3VGaJPyhKOF_r-23" value="Categories" style="shape=table;startSize=30;container=1;collapsible=1;childLayout=tableLayout;fixedRows=1;rowLines=0;fontStyle=1;align=center;resizeLast=1;html=1;" vertex="1" parent="1">
          <mxGeometry x="1030" width="180" height="90" as="geometry">
            <mxRectangle x="738.88" y="20" width="93" height="30" as="alternateBounds" />
          </mxGeometry>
        </mxCell>
        <mxCell id="NT3E-wE3VGaJPyhKOF_r-24" value="" style="shape=tableRow;horizontal=0;startSize=0;swimlaneHead=0;swimlaneBody=0;fillColor=none;collapsible=0;dropTarget=0;points=[[0,0.5],[1,0.5]];portConstraint=eastwest;top=0;left=0;right=0;bottom=1;" vertex="1" parent="NT3E-wE3VGaJPyhKOF_r-23">
          <mxGeometry y="30" width="180" height="30" as="geometry" />
        </mxCell>
        <mxCell id="NT3E-wE3VGaJPyhKOF_r-25" value="PK" style="shape=partialRectangle;connectable=0;fillColor=none;top=0;left=0;bottom=0;right=0;fontStyle=1;overflow=hidden;whiteSpace=wrap;html=1;" vertex="1" parent="NT3E-wE3VGaJPyhKOF_r-24">
          <mxGeometry width="30" height="30" as="geometry">
            <mxRectangle width="30" height="30" as="alternateBounds" />
          </mxGeometry>
        </mxCell>
        <mxCell id="NT3E-wE3VGaJPyhKOF_r-26" value="Category_ID (INTEGER)" style="shape=partialRectangle;connectable=0;fillColor=none;top=0;left=0;bottom=0;right=0;align=left;spacingLeft=6;fontStyle=5;overflow=hidden;whiteSpace=wrap;html=1;" vertex="1" parent="NT3E-wE3VGaJPyhKOF_r-24">
          <mxGeometry x="30" width="150" height="30" as="geometry">
            <mxRectangle width="150" height="30" as="alternateBounds" />
          </mxGeometry>
        </mxCell>
        <mxCell id="NT3E-wE3VGaJPyhKOF_r-27" value="" style="shape=tableRow;horizontal=0;startSize=0;swimlaneHead=0;swimlaneBody=0;fillColor=none;collapsible=0;dropTarget=0;points=[[0,0.5],[1,0.5]];portConstraint=eastwest;top=0;left=0;right=0;bottom=0;" vertex="1" parent="NT3E-wE3VGaJPyhKOF_r-23">
          <mxGeometry y="60" width="180" height="30" as="geometry" />
        </mxCell>
        <mxCell id="NT3E-wE3VGaJPyhKOF_r-28" value="" style="shape=partialRectangle;connectable=0;fillColor=none;top=0;left=0;bottom=0;right=0;editable=1;overflow=hidden;whiteSpace=wrap;html=1;" vertex="1" parent="NT3E-wE3VGaJPyhKOF_r-27">
          <mxGeometry width="30" height="30" as="geometry">
            <mxRectangle width="30" height="30" as="alternateBounds" />
          </mxGeometry>
        </mxCell>
        <mxCell id="NT3E-wE3VGaJPyhKOF_r-29" value="Category_Name (TEXT)" style="shape=partialRectangle;connectable=0;fillColor=none;top=0;left=0;bottom=0;right=0;align=left;spacingLeft=6;overflow=hidden;whiteSpace=wrap;html=1;" vertex="1" parent="NT3E-wE3VGaJPyhKOF_r-27">
          <mxGeometry x="30" width="150" height="30" as="geometry">
            <mxRectangle width="150" height="30" as="alternateBounds" />
          </mxGeometry>
        </mxCell>
        <mxCell id="NT3E-wE3VGaJPyhKOF_r-36" value="Customers" style="shape=table;startSize=30;container=1;collapsible=1;childLayout=tableLayout;fixedRows=1;rowLines=0;fontStyle=1;align=center;resizeLast=1;html=1;" vertex="1" parent="1">
          <mxGeometry x="330" y="880" width="197.75" height="270" as="geometry">
            <mxRectangle x="120" y="720" width="93" height="30" as="alternateBounds" />
          </mxGeometry>
        </mxCell>
        <mxCell id="NT3E-wE3VGaJPyhKOF_r-37" value="" style="shape=tableRow;horizontal=0;startSize=0;swimlaneHead=0;swimlaneBody=0;fillColor=none;collapsible=0;dropTarget=0;points=[[0,0.5],[1,0.5]];portConstraint=eastwest;top=0;left=0;right=0;bottom=1;" vertex="1" parent="NT3E-wE3VGaJPyhKOF_r-36">
          <mxGeometry y="30" width="197.75" height="30" as="geometry" />
        </mxCell>
        <mxCell id="NT3E-wE3VGaJPyhKOF_r-38" value="PK" style="shape=partialRectangle;connectable=0;fillColor=none;top=0;left=0;bottom=0;right=0;fontStyle=1;overflow=hidden;whiteSpace=wrap;html=1;" vertex="1" parent="NT3E-wE3VGaJPyhKOF_r-37">
          <mxGeometry width="30" height="30" as="geometry">
            <mxRectangle width="30" height="30" as="alternateBounds" />
          </mxGeometry>
        </mxCell>
        <mxCell id="NT3E-wE3VGaJPyhKOF_r-39" value="Customer_ID (INTEGER)" style="shape=partialRectangle;connectable=0;fillColor=none;top=0;left=0;bottom=0;right=0;align=left;spacingLeft=6;fontStyle=5;overflow=hidden;whiteSpace=wrap;html=1;" vertex="1" parent="NT3E-wE3VGaJPyhKOF_r-37">
          <mxGeometry x="30" width="167.75" height="30" as="geometry">
            <mxRectangle width="167.75" height="30" as="alternateBounds" />
          </mxGeometry>
        </mxCell>
        <mxCell id="NT3E-wE3VGaJPyhKOF_r-40" value="" style="shape=tableRow;horizontal=0;startSize=0;swimlaneHead=0;swimlaneBody=0;fillColor=none;collapsible=0;dropTarget=0;points=[[0,0.5],[1,0.5]];portConstraint=eastwest;top=0;left=0;right=0;bottom=0;" vertex="1" parent="NT3E-wE3VGaJPyhKOF_r-36">
          <mxGeometry y="60" width="197.75" height="30" as="geometry" />
        </mxCell>
        <mxCell id="NT3E-wE3VGaJPyhKOF_r-41" value="" style="shape=partialRectangle;connectable=0;fillColor=none;top=0;left=0;bottom=0;right=0;editable=1;overflow=hidden;whiteSpace=wrap;html=1;" vertex="1" parent="NT3E-wE3VGaJPyhKOF_r-40">
          <mxGeometry width="30" height="30" as="geometry">
            <mxRectangle width="30" height="30" as="alternateBounds" />
          </mxGeometry>
        </mxCell>
        <mxCell id="NT3E-wE3VGaJPyhKOF_r-42" value="First_Name (TEXT)" style="shape=partialRectangle;connectable=0;fillColor=none;top=0;left=0;bottom=0;right=0;align=left;spacingLeft=6;overflow=hidden;whiteSpace=wrap;html=1;" vertex="1" parent="NT3E-wE3VGaJPyhKOF_r-40">
          <mxGeometry x="30" width="167.75" height="30" as="geometry">
            <mxRectangle width="167.75" height="30" as="alternateBounds" />
          </mxGeometry>
        </mxCell>
        <mxCell id="NT3E-wE3VGaJPyhKOF_r-43" value="" style="shape=tableRow;horizontal=0;startSize=0;swimlaneHead=0;swimlaneBody=0;fillColor=none;collapsible=0;dropTarget=0;points=[[0,0.5],[1,0.5]];portConstraint=eastwest;top=0;left=0;right=0;bottom=0;" vertex="1" parent="NT3E-wE3VGaJPyhKOF_r-36">
          <mxGeometry y="90" width="197.75" height="30" as="geometry" />
        </mxCell>
        <mxCell id="NT3E-wE3VGaJPyhKOF_r-44" value="" style="shape=partialRectangle;connectable=0;fillColor=none;top=0;left=0;bottom=0;right=0;editable=1;overflow=hidden;whiteSpace=wrap;html=1;" vertex="1" parent="NT3E-wE3VGaJPyhKOF_r-43">
          <mxGeometry width="30" height="30" as="geometry">
            <mxRectangle width="30" height="30" as="alternateBounds" />
          </mxGeometry>
        </mxCell>
        <mxCell id="NT3E-wE3VGaJPyhKOF_r-45" value="Last_Name (TEXT)" style="shape=partialRectangle;connectable=0;fillColor=none;top=0;left=0;bottom=0;right=0;align=left;spacingLeft=6;overflow=hidden;whiteSpace=wrap;html=1;" vertex="1" parent="NT3E-wE3VGaJPyhKOF_r-43">
          <mxGeometry x="30" width="167.75" height="30" as="geometry">
            <mxRectangle width="167.75" height="30" as="alternateBounds" />
          </mxGeometry>
        </mxCell>
        <mxCell id="NT3E-wE3VGaJPyhKOF_r-46" value="" style="shape=tableRow;horizontal=0;startSize=0;swimlaneHead=0;swimlaneBody=0;fillColor=none;collapsible=0;dropTarget=0;points=[[0,0.5],[1,0.5]];portConstraint=eastwest;top=0;left=0;right=0;bottom=0;" vertex="1" parent="NT3E-wE3VGaJPyhKOF_r-36">
          <mxGeometry y="120" width="197.75" height="30" as="geometry" />
        </mxCell>
        <mxCell id="NT3E-wE3VGaJPyhKOF_r-47" value="" style="shape=partialRectangle;connectable=0;fillColor=none;top=0;left=0;bottom=0;right=0;editable=1;overflow=hidden;whiteSpace=wrap;html=1;" vertex="1" parent="NT3E-wE3VGaJPyhKOF_r-46">
          <mxGeometry width="30" height="30" as="geometry">
            <mxRectangle width="30" height="30" as="alternateBounds" />
          </mxGeometry>
        </mxCell>
        <mxCell id="NT3E-wE3VGaJPyhKOF_r-48" value="Primary_Address (TEXT)" style="shape=partialRectangle;connectable=0;fillColor=none;top=0;left=0;bottom=0;right=0;align=left;spacingLeft=6;overflow=hidden;whiteSpace=wrap;html=1;" vertex="1" parent="NT3E-wE3VGaJPyhKOF_r-46">
          <mxGeometry x="30" width="167.75" height="30" as="geometry">
            <mxRectangle width="167.75" height="30" as="alternateBounds" />
          </mxGeometry>
        </mxCell>
        <mxCell id="NT3E-wE3VGaJPyhKOF_r-49" value="" style="shape=tableRow;horizontal=0;startSize=0;swimlaneHead=0;swimlaneBody=0;fillColor=none;collapsible=0;dropTarget=0;points=[[0,0.5],[1,0.5]];portConstraint=eastwest;top=0;left=0;right=0;bottom=0;" vertex="1" parent="NT3E-wE3VGaJPyhKOF_r-36">
          <mxGeometry y="150" width="197.75" height="30" as="geometry" />
        </mxCell>
        <mxCell id="NT3E-wE3VGaJPyhKOF_r-50" value="" style="shape=partialRectangle;connectable=0;fillColor=none;top=0;left=0;bottom=0;right=0;editable=1;overflow=hidden;whiteSpace=wrap;html=1;" vertex="1" parent="NT3E-wE3VGaJPyhKOF_r-49">
          <mxGeometry width="30" height="30" as="geometry">
            <mxRectangle width="30" height="30" as="alternateBounds" />
          </mxGeometry>
        </mxCell>
        <mxCell id="NT3E-wE3VGaJPyhKOF_r-51" value="Secondary_Address (TEXT)" style="shape=partialRectangle;connectable=0;fillColor=none;top=0;left=0;bottom=0;right=0;align=left;spacingLeft=6;overflow=hidden;whiteSpace=wrap;html=1;" vertex="1" parent="NT3E-wE3VGaJPyhKOF_r-49">
          <mxGeometry x="30" width="167.75" height="30" as="geometry">
            <mxRectangle width="167.75" height="30" as="alternateBounds" />
          </mxGeometry>
        </mxCell>
        <mxCell id="NT3E-wE3VGaJPyhKOF_r-52" value="" style="shape=tableRow;horizontal=0;startSize=0;swimlaneHead=0;swimlaneBody=0;fillColor=none;collapsible=0;dropTarget=0;points=[[0,0.5],[1,0.5]];portConstraint=eastwest;top=0;left=0;right=0;bottom=0;" vertex="1" parent="NT3E-wE3VGaJPyhKOF_r-36">
          <mxGeometry y="180" width="197.75" height="30" as="geometry" />
        </mxCell>
        <mxCell id="NT3E-wE3VGaJPyhKOF_r-53" value="" style="shape=partialRectangle;connectable=0;fillColor=none;top=0;left=0;bottom=0;right=0;editable=1;overflow=hidden;whiteSpace=wrap;html=1;" vertex="1" parent="NT3E-wE3VGaJPyhKOF_r-52">
          <mxGeometry width="30" height="30" as="geometry">
            <mxRectangle width="30" height="30" as="alternateBounds" />
          </mxGeometry>
        </mxCell>
        <mxCell id="NT3E-wE3VGaJPyhKOF_r-54" value="Phone&amp;nbsp;(TEXT)" style="shape=partialRectangle;connectable=0;fillColor=none;top=0;left=0;bottom=0;right=0;align=left;spacingLeft=6;overflow=hidden;whiteSpace=wrap;html=1;" vertex="1" parent="NT3E-wE3VGaJPyhKOF_r-52">
          <mxGeometry x="30" width="167.75" height="30" as="geometry">
            <mxRectangle width="167.75" height="30" as="alternateBounds" />
          </mxGeometry>
        </mxCell>
        <mxCell id="NT3E-wE3VGaJPyhKOF_r-55" value="" style="shape=tableRow;horizontal=0;startSize=0;swimlaneHead=0;swimlaneBody=0;fillColor=none;collapsible=0;dropTarget=0;points=[[0,0.5],[1,0.5]];portConstraint=eastwest;top=0;left=0;right=0;bottom=0;" vertex="1" parent="NT3E-wE3VGaJPyhKOF_r-36">
          <mxGeometry y="210" width="197.75" height="30" as="geometry" />
        </mxCell>
        <mxCell id="NT3E-wE3VGaJPyhKOF_r-56" value="" style="shape=partialRectangle;connectable=0;fillColor=none;top=0;left=0;bottom=0;right=0;editable=1;overflow=hidden;whiteSpace=wrap;html=1;" vertex="1" parent="NT3E-wE3VGaJPyhKOF_r-55">
          <mxGeometry width="30" height="30" as="geometry">
            <mxRectangle width="30" height="30" as="alternateBounds" />
          </mxGeometry>
        </mxCell>
        <mxCell id="NT3E-wE3VGaJPyhKOF_r-57" value="Email&amp;nbsp;(TEXT)" style="shape=partialRectangle;connectable=0;fillColor=none;top=0;left=0;bottom=0;right=0;align=left;spacingLeft=6;overflow=hidden;whiteSpace=wrap;html=1;" vertex="1" parent="NT3E-wE3VGaJPyhKOF_r-55">
          <mxGeometry x="30" width="167.75" height="30" as="geometry">
            <mxRectangle width="167.75" height="30" as="alternateBounds" />
          </mxGeometry>
        </mxCell>
        <mxCell id="NT3E-wE3VGaJPyhKOF_r-58" value="" style="shape=tableRow;horizontal=0;startSize=0;swimlaneHead=0;swimlaneBody=0;fillColor=none;collapsible=0;dropTarget=0;points=[[0,0.5],[1,0.5]];portConstraint=eastwest;top=0;left=0;right=0;bottom=0;" vertex="1" parent="NT3E-wE3VGaJPyhKOF_r-36">
          <mxGeometry y="240" width="197.75" height="30" as="geometry" />
        </mxCell>
        <mxCell id="NT3E-wE3VGaJPyhKOF_r-59" value="" style="shape=partialRectangle;connectable=0;fillColor=none;top=0;left=0;bottom=0;right=0;editable=1;overflow=hidden;whiteSpace=wrap;html=1;" vertex="1" parent="NT3E-wE3VGaJPyhKOF_r-58">
          <mxGeometry width="30" height="30" as="geometry">
            <mxRectangle width="30" height="30" as="alternateBounds" />
          </mxGeometry>
        </mxCell>
        <mxCell id="NT3E-wE3VGaJPyhKOF_r-60" value="Password&amp;nbsp;(TEXT)" style="shape=partialRectangle;connectable=0;fillColor=none;top=0;left=0;bottom=0;right=0;align=left;spacingLeft=6;overflow=hidden;whiteSpace=wrap;html=1;" vertex="1" parent="NT3E-wE3VGaJPyhKOF_r-58">
          <mxGeometry x="30" width="167.75" height="30" as="geometry">
            <mxRectangle width="167.75" height="30" as="alternateBounds" />
          </mxGeometry>
        </mxCell>
        <mxCell id="NT3E-wE3VGaJPyhKOF_r-61" value="Orders" style="shape=table;startSize=30;container=1;collapsible=1;childLayout=tableLayout;fixedRows=1;rowLines=0;fontStyle=1;align=center;resizeLast=1;html=1;" vertex="1" parent="1">
          <mxGeometry x="690" y="880" width="197.75" height="180" as="geometry">
            <mxRectangle x="510" y="852" width="72" height="30" as="alternateBounds" />
          </mxGeometry>
        </mxCell>
        <mxCell id="NT3E-wE3VGaJPyhKOF_r-62" value="" style="shape=tableRow;horizontal=0;startSize=0;swimlaneHead=0;swimlaneBody=0;fillColor=none;collapsible=0;dropTarget=0;points=[[0,0.5],[1,0.5]];portConstraint=eastwest;top=0;left=0;right=0;bottom=1;" vertex="1" parent="NT3E-wE3VGaJPyhKOF_r-61">
          <mxGeometry y="30" width="197.75" height="30" as="geometry" />
        </mxCell>
        <mxCell id="NT3E-wE3VGaJPyhKOF_r-63" value="PK" style="shape=partialRectangle;connectable=0;fillColor=none;top=0;left=0;bottom=0;right=0;fontStyle=1;overflow=hidden;whiteSpace=wrap;html=1;" vertex="1" parent="NT3E-wE3VGaJPyhKOF_r-62">
          <mxGeometry width="30" height="30" as="geometry">
            <mxRectangle width="30" height="30" as="alternateBounds" />
          </mxGeometry>
        </mxCell>
        <mxCell id="NT3E-wE3VGaJPyhKOF_r-64" value="Order_ID (INTEGER)" style="shape=partialRectangle;connectable=0;fillColor=none;top=0;left=0;bottom=0;right=0;align=left;spacingLeft=6;fontStyle=5;overflow=hidden;whiteSpace=wrap;html=1;" vertex="1" parent="NT3E-wE3VGaJPyhKOF_r-62">
          <mxGeometry x="30" width="167.75" height="30" as="geometry">
            <mxRectangle width="167.75" height="30" as="alternateBounds" />
          </mxGeometry>
        </mxCell>
        <mxCell id="NT3E-wE3VGaJPyhKOF_r-65" value="" style="shape=tableRow;horizontal=0;startSize=0;swimlaneHead=0;swimlaneBody=0;fillColor=none;collapsible=0;dropTarget=0;points=[[0,0.5],[1,0.5]];portConstraint=eastwest;top=0;left=0;right=0;bottom=0;" vertex="1" parent="NT3E-wE3VGaJPyhKOF_r-61">
          <mxGeometry y="60" width="197.75" height="30" as="geometry" />
        </mxCell>
        <mxCell id="NT3E-wE3VGaJPyhKOF_r-66" value="FK" style="shape=partialRectangle;connectable=0;fillColor=none;top=0;left=0;bottom=0;right=0;editable=1;overflow=hidden;whiteSpace=wrap;html=1;" vertex="1" parent="NT3E-wE3VGaJPyhKOF_r-65">
          <mxGeometry width="30" height="30" as="geometry">
            <mxRectangle width="30" height="30" as="alternateBounds" />
          </mxGeometry>
        </mxCell>
        <mxCell id="NT3E-wE3VGaJPyhKOF_r-67" value="Customer_ID (INTEGER)" style="shape=partialRectangle;connectable=0;fillColor=none;top=0;left=0;bottom=0;right=0;align=left;spacingLeft=6;overflow=hidden;whiteSpace=wrap;html=1;" vertex="1" parent="NT3E-wE3VGaJPyhKOF_r-65">
          <mxGeometry x="30" width="167.75" height="30" as="geometry">
            <mxRectangle width="167.75" height="30" as="alternateBounds" />
          </mxGeometry>
        </mxCell>
        <mxCell id="NT3E-wE3VGaJPyhKOF_r-68" value="" style="shape=tableRow;horizontal=0;startSize=0;swimlaneHead=0;swimlaneBody=0;fillColor=none;collapsible=0;dropTarget=0;points=[[0,0.5],[1,0.5]];portConstraint=eastwest;top=0;left=0;right=0;bottom=0;" vertex="1" parent="NT3E-wE3VGaJPyhKOF_r-61">
          <mxGeometry y="90" width="197.75" height="30" as="geometry" />
        </mxCell>
        <mxCell id="NT3E-wE3VGaJPyhKOF_r-69" value="" style="shape=partialRectangle;connectable=0;fillColor=none;top=0;left=0;bottom=0;right=0;editable=1;overflow=hidden;whiteSpace=wrap;html=1;" vertex="1" parent="NT3E-wE3VGaJPyhKOF_r-68">
          <mxGeometry width="30" height="30" as="geometry">
            <mxRectangle width="30" height="30" as="alternateBounds" />
          </mxGeometry>
        </mxCell>
        <mxCell id="NT3E-wE3VGaJPyhKOF_r-70" value="Order_Status&amp;nbsp;(TEXT)" style="shape=partialRectangle;connectable=0;fillColor=none;top=0;left=0;bottom=0;right=0;align=left;spacingLeft=6;overflow=hidden;whiteSpace=wrap;html=1;" vertex="1" parent="NT3E-wE3VGaJPyhKOF_r-68">
          <mxGeometry x="30" width="167.75" height="30" as="geometry">
            <mxRectangle width="167.75" height="30" as="alternateBounds" />
          </mxGeometry>
        </mxCell>
        <mxCell id="NT3E-wE3VGaJPyhKOF_r-71" value="" style="shape=tableRow;horizontal=0;startSize=0;swimlaneHead=0;swimlaneBody=0;fillColor=none;collapsible=0;dropTarget=0;points=[[0,0.5],[1,0.5]];portConstraint=eastwest;top=0;left=0;right=0;bottom=0;" vertex="1" parent="NT3E-wE3VGaJPyhKOF_r-61">
          <mxGeometry y="120" width="197.75" height="30" as="geometry" />
        </mxCell>
        <mxCell id="NT3E-wE3VGaJPyhKOF_r-72" value="" style="shape=partialRectangle;connectable=0;fillColor=none;top=0;left=0;bottom=0;right=0;editable=1;overflow=hidden;whiteSpace=wrap;html=1;" vertex="1" parent="NT3E-wE3VGaJPyhKOF_r-71">
          <mxGeometry width="30" height="30" as="geometry">
            <mxRectangle width="30" height="30" as="alternateBounds" />
          </mxGeometry>
        </mxCell>
        <mxCell id="NT3E-wE3VGaJPyhKOF_r-73" value="Order_Date&amp;nbsp;(TEXT)" style="shape=partialRectangle;connectable=0;fillColor=none;top=0;left=0;bottom=0;right=0;align=left;spacingLeft=6;overflow=hidden;whiteSpace=wrap;html=1;" vertex="1" parent="NT3E-wE3VGaJPyhKOF_r-71">
          <mxGeometry x="30" width="167.75" height="30" as="geometry">
            <mxRectangle width="167.75" height="30" as="alternateBounds" />
          </mxGeometry>
        </mxCell>
        <mxCell id="NT3E-wE3VGaJPyhKOF_r-74" value="" style="shape=tableRow;horizontal=0;startSize=0;swimlaneHead=0;swimlaneBody=0;fillColor=none;collapsible=0;dropTarget=0;points=[[0,0.5],[1,0.5]];portConstraint=eastwest;top=0;left=0;right=0;bottom=0;" vertex="1" parent="NT3E-wE3VGaJPyhKOF_r-61">
          <mxGeometry y="150" width="197.75" height="30" as="geometry" />
        </mxCell>
        <mxCell id="NT3E-wE3VGaJPyhKOF_r-75" value="" style="shape=partialRectangle;connectable=0;fillColor=none;top=0;left=0;bottom=0;right=0;editable=1;overflow=hidden;whiteSpace=wrap;html=1;" vertex="1" parent="NT3E-wE3VGaJPyhKOF_r-74">
          <mxGeometry width="30" height="30" as="geometry">
            <mxRectangle width="30" height="30" as="alternateBounds" />
          </mxGeometry>
        </mxCell>
        <mxCell id="NT3E-wE3VGaJPyhKOF_r-76" value="Shipping_Information&amp;nbsp;(TEXT)" style="shape=partialRectangle;connectable=0;fillColor=none;top=0;left=0;bottom=0;right=0;align=left;spacingLeft=6;overflow=hidden;whiteSpace=wrap;html=1;" vertex="1" parent="NT3E-wE3VGaJPyhKOF_r-74">
          <mxGeometry x="30" width="167.75" height="30" as="geometry">
            <mxRectangle width="167.75" height="30" as="alternateBounds" />
          </mxGeometry>
        </mxCell>
        <mxCell id="NT3E-wE3VGaJPyhKOF_r-80" value="Order_Details" style="shape=table;startSize=30;container=1;collapsible=1;childLayout=tableLayout;fixedRows=1;rowLines=0;fontStyle=1;align=center;resizeLast=1;html=1;" vertex="1" parent="1">
          <mxGeometry x="1029" y="560" width="210.75" height="180" as="geometry">
            <mxRectangle x="313" y="167" width="109" height="30" as="alternateBounds" />
          </mxGeometry>
        </mxCell>
        <mxCell id="NT3E-wE3VGaJPyhKOF_r-81" value="" style="shape=tableRow;horizontal=0;startSize=0;swimlaneHead=0;swimlaneBody=0;fillColor=none;collapsible=0;dropTarget=0;points=[[0,0.5],[1,0.5]];portConstraint=eastwest;top=0;left=0;right=0;bottom=1;" vertex="1" parent="NT3E-wE3VGaJPyhKOF_r-80">
          <mxGeometry y="30" width="210.75" height="30" as="geometry" />
        </mxCell>
        <mxCell id="NT3E-wE3VGaJPyhKOF_r-82" value="PK" style="shape=partialRectangle;connectable=0;fillColor=none;top=0;left=0;bottom=0;right=0;fontStyle=1;overflow=hidden;whiteSpace=wrap;html=1;" vertex="1" parent="NT3E-wE3VGaJPyhKOF_r-81">
          <mxGeometry width="30" height="30" as="geometry">
            <mxRectangle width="30" height="30" as="alternateBounds" />
          </mxGeometry>
        </mxCell>
        <mxCell id="NT3E-wE3VGaJPyhKOF_r-83" value="Order_Detail_ID (INTEGER)" style="shape=partialRectangle;connectable=0;fillColor=none;top=0;left=0;bottom=0;right=0;align=left;spacingLeft=6;fontStyle=5;overflow=hidden;whiteSpace=wrap;html=1;" vertex="1" parent="NT3E-wE3VGaJPyhKOF_r-81">
          <mxGeometry x="30" width="180.75" height="30" as="geometry">
            <mxRectangle width="180.75" height="30" as="alternateBounds" />
          </mxGeometry>
        </mxCell>
        <mxCell id="NT3E-wE3VGaJPyhKOF_r-87" value="" style="shape=tableRow;horizontal=0;startSize=0;swimlaneHead=0;swimlaneBody=0;fillColor=none;collapsible=0;dropTarget=0;points=[[0,0.5],[1,0.5]];portConstraint=eastwest;top=0;left=0;right=0;bottom=0;" vertex="1" parent="NT3E-wE3VGaJPyhKOF_r-80">
          <mxGeometry y="60" width="210.75" height="30" as="geometry" />
        </mxCell>
        <mxCell id="NT3E-wE3VGaJPyhKOF_r-88" value="FK" style="shape=partialRectangle;connectable=0;fillColor=none;top=0;left=0;bottom=0;right=0;editable=1;overflow=hidden;whiteSpace=wrap;html=1;" vertex="1" parent="NT3E-wE3VGaJPyhKOF_r-87">
          <mxGeometry width="30" height="30" as="geometry">
            <mxRectangle width="30" height="30" as="alternateBounds" />
          </mxGeometry>
        </mxCell>
        <mxCell id="NT3E-wE3VGaJPyhKOF_r-89" value="Product_ID (INTEGER)" style="shape=partialRectangle;connectable=0;fillColor=none;top=0;left=0;bottom=0;right=0;align=left;spacingLeft=6;overflow=hidden;whiteSpace=wrap;html=1;" vertex="1" parent="NT3E-wE3VGaJPyhKOF_r-87">
          <mxGeometry x="30" width="180.75" height="30" as="geometry">
            <mxRectangle width="180.75" height="30" as="alternateBounds" />
          </mxGeometry>
        </mxCell>
        <mxCell id="NT3E-wE3VGaJPyhKOF_r-84" value="" style="shape=tableRow;horizontal=0;startSize=0;swimlaneHead=0;swimlaneBody=0;fillColor=none;collapsible=0;dropTarget=0;points=[[0,0.5],[1,0.5]];portConstraint=eastwest;top=0;left=0;right=0;bottom=0;" vertex="1" parent="NT3E-wE3VGaJPyhKOF_r-80">
          <mxGeometry y="90" width="210.75" height="30" as="geometry" />
        </mxCell>
        <mxCell id="NT3E-wE3VGaJPyhKOF_r-85" value="FK" style="shape=partialRectangle;connectable=0;fillColor=none;top=0;left=0;bottom=0;right=0;editable=1;overflow=hidden;whiteSpace=wrap;html=1;" vertex="1" parent="NT3E-wE3VGaJPyhKOF_r-84">
          <mxGeometry width="30" height="30" as="geometry">
            <mxRectangle width="30" height="30" as="alternateBounds" />
          </mxGeometry>
        </mxCell>
        <mxCell id="NT3E-wE3VGaJPyhKOF_r-86" value="Order_ID (INTEGER)" style="shape=partialRectangle;connectable=0;fillColor=none;top=0;left=0;bottom=0;right=0;align=left;spacingLeft=6;overflow=hidden;whiteSpace=wrap;html=1;" vertex="1" parent="NT3E-wE3VGaJPyhKOF_r-84">
          <mxGeometry x="30" width="180.75" height="30" as="geometry">
            <mxRectangle width="180.75" height="30" as="alternateBounds" />
          </mxGeometry>
        </mxCell>
        <mxCell id="NT3E-wE3VGaJPyhKOF_r-90" value="" style="shape=tableRow;horizontal=0;startSize=0;swimlaneHead=0;swimlaneBody=0;fillColor=none;collapsible=0;dropTarget=0;points=[[0,0.5],[1,0.5]];portConstraint=eastwest;top=0;left=0;right=0;bottom=0;" vertex="1" parent="NT3E-wE3VGaJPyhKOF_r-80">
          <mxGeometry y="120" width="210.75" height="30" as="geometry" />
        </mxCell>
        <mxCell id="NT3E-wE3VGaJPyhKOF_r-91" value="" style="shape=partialRectangle;connectable=0;fillColor=none;top=0;left=0;bottom=0;right=0;editable=1;overflow=hidden;whiteSpace=wrap;html=1;" vertex="1" parent="NT3E-wE3VGaJPyhKOF_r-90">
          <mxGeometry width="30" height="30" as="geometry">
            <mxRectangle width="30" height="30" as="alternateBounds" />
          </mxGeometry>
        </mxCell>
        <mxCell id="NT3E-wE3VGaJPyhKOF_r-92" value="Quantity (INTEGER)" style="shape=partialRectangle;connectable=0;fillColor=none;top=0;left=0;bottom=0;right=0;align=left;spacingLeft=6;overflow=hidden;whiteSpace=wrap;html=1;" vertex="1" parent="NT3E-wE3VGaJPyhKOF_r-90">
          <mxGeometry x="30" width="180.75" height="30" as="geometry">
            <mxRectangle width="180.75" height="30" as="alternateBounds" />
          </mxGeometry>
        </mxCell>
        <mxCell id="NT3E-wE3VGaJPyhKOF_r-93" value="" style="shape=tableRow;horizontal=0;startSize=0;swimlaneHead=0;swimlaneBody=0;fillColor=none;collapsible=0;dropTarget=0;points=[[0,0.5],[1,0.5]];portConstraint=eastwest;top=0;left=0;right=0;bottom=0;" vertex="1" parent="NT3E-wE3VGaJPyhKOF_r-80">
          <mxGeometry y="150" width="210.75" height="30" as="geometry" />
        </mxCell>
        <mxCell id="NT3E-wE3VGaJPyhKOF_r-94" value="" style="shape=partialRectangle;connectable=0;fillColor=none;top=0;left=0;bottom=0;right=0;editable=1;overflow=hidden;whiteSpace=wrap;html=1;" vertex="1" parent="NT3E-wE3VGaJPyhKOF_r-93">
          <mxGeometry width="30" height="30" as="geometry">
            <mxRectangle width="30" height="30" as="alternateBounds" />
          </mxGeometry>
        </mxCell>
        <mxCell id="NT3E-wE3VGaJPyhKOF_r-95" value="Unit_Price (REAL)" style="shape=partialRectangle;connectable=0;fillColor=none;top=0;left=0;bottom=0;right=0;align=left;spacingLeft=6;overflow=hidden;whiteSpace=wrap;html=1;" vertex="1" parent="NT3E-wE3VGaJPyhKOF_r-93">
          <mxGeometry x="30" width="180.75" height="30" as="geometry">
            <mxRectangle width="180.75" height="30" as="alternateBounds" />
          </mxGeometry>
        </mxCell>
        <mxCell id="NT3E-wE3VGaJPyhKOF_r-96" value="Inventory" style="shape=table;startSize=30;container=1;collapsible=1;childLayout=tableLayout;fixedRows=1;rowLines=0;fontStyle=1;align=center;resizeLast=1;html=1;" vertex="1" parent="1">
          <mxGeometry x="690" y="360" width="214.75" height="150" as="geometry">
            <mxRectangle x="-220" y="40" width="84" height="30" as="alternateBounds" />
          </mxGeometry>
        </mxCell>
        <mxCell id="NT3E-wE3VGaJPyhKOF_r-97" value="" style="shape=tableRow;horizontal=0;startSize=0;swimlaneHead=0;swimlaneBody=0;fillColor=none;collapsible=0;dropTarget=0;points=[[0,0.5],[1,0.5]];portConstraint=eastwest;top=0;left=0;right=0;bottom=1;" vertex="1" parent="NT3E-wE3VGaJPyhKOF_r-96">
          <mxGeometry y="30" width="214.75" height="30" as="geometry" />
        </mxCell>
        <mxCell id="NT3E-wE3VGaJPyhKOF_r-98" value="PK" style="shape=partialRectangle;connectable=0;fillColor=none;top=0;left=0;bottom=0;right=0;fontStyle=1;overflow=hidden;whiteSpace=wrap;html=1;" vertex="1" parent="NT3E-wE3VGaJPyhKOF_r-97">
          <mxGeometry width="30" height="30" as="geometry">
            <mxRectangle width="30" height="30" as="alternateBounds" />
          </mxGeometry>
        </mxCell>
        <mxCell id="NT3E-wE3VGaJPyhKOF_r-99" value="Inventory_ID (INTEGER)" style="shape=partialRectangle;connectable=0;fillColor=none;top=0;left=0;bottom=0;right=0;align=left;spacingLeft=6;fontStyle=5;overflow=hidden;whiteSpace=wrap;html=1;" vertex="1" parent="NT3E-wE3VGaJPyhKOF_r-97">
          <mxGeometry x="30" width="184.75" height="30" as="geometry">
            <mxRectangle width="184.75" height="30" as="alternateBounds" />
          </mxGeometry>
        </mxCell>
        <mxCell id="NT3E-wE3VGaJPyhKOF_r-100" value="" style="shape=tableRow;horizontal=0;startSize=0;swimlaneHead=0;swimlaneBody=0;fillColor=none;collapsible=0;dropTarget=0;points=[[0,0.5],[1,0.5]];portConstraint=eastwest;top=0;left=0;right=0;bottom=0;" vertex="1" parent="NT3E-wE3VGaJPyhKOF_r-96">
          <mxGeometry y="60" width="214.75" height="30" as="geometry" />
        </mxCell>
        <mxCell id="NT3E-wE3VGaJPyhKOF_r-101" value="FK" style="shape=partialRectangle;connectable=0;fillColor=none;top=0;left=0;bottom=0;right=0;editable=1;overflow=hidden;whiteSpace=wrap;html=1;" vertex="1" parent="NT3E-wE3VGaJPyhKOF_r-100">
          <mxGeometry width="30" height="30" as="geometry">
            <mxRectangle width="30" height="30" as="alternateBounds" />
          </mxGeometry>
        </mxCell>
        <mxCell id="NT3E-wE3VGaJPyhKOF_r-102" value="Product_ID (INTEGER)" style="shape=partialRectangle;connectable=0;fillColor=none;top=0;left=0;bottom=0;right=0;align=left;spacingLeft=6;overflow=hidden;whiteSpace=wrap;html=1;" vertex="1" parent="NT3E-wE3VGaJPyhKOF_r-100">
          <mxGeometry x="30" width="184.75" height="30" as="geometry">
            <mxRectangle width="184.75" height="30" as="alternateBounds" />
          </mxGeometry>
        </mxCell>
        <mxCell id="NT3E-wE3VGaJPyhKOF_r-103" value="" style="shape=tableRow;horizontal=0;startSize=0;swimlaneHead=0;swimlaneBody=0;fillColor=none;collapsible=0;dropTarget=0;points=[[0,0.5],[1,0.5]];portConstraint=eastwest;top=0;left=0;right=0;bottom=0;" vertex="1" parent="NT3E-wE3VGaJPyhKOF_r-96">
          <mxGeometry y="90" width="214.75" height="30" as="geometry" />
        </mxCell>
        <mxCell id="NT3E-wE3VGaJPyhKOF_r-104" value="FK" style="shape=partialRectangle;connectable=0;fillColor=none;top=0;left=0;bottom=0;right=0;editable=1;overflow=hidden;whiteSpace=wrap;html=1;" vertex="1" parent="NT3E-wE3VGaJPyhKOF_r-103">
          <mxGeometry width="30" height="30" as="geometry">
            <mxRectangle width="30" height="30" as="alternateBounds" />
          </mxGeometry>
        </mxCell>
        <mxCell id="NT3E-wE3VGaJPyhKOF_r-105" value="Warehouse_ID (INTEGER)" style="shape=partialRectangle;connectable=0;fillColor=none;top=0;left=0;bottom=0;right=0;align=left;spacingLeft=6;overflow=hidden;whiteSpace=wrap;html=1;" vertex="1" parent="NT3E-wE3VGaJPyhKOF_r-103">
          <mxGeometry x="30" width="184.75" height="30" as="geometry">
            <mxRectangle width="184.75" height="30" as="alternateBounds" />
          </mxGeometry>
        </mxCell>
        <mxCell id="NT3E-wE3VGaJPyhKOF_r-106" value="" style="shape=tableRow;horizontal=0;startSize=0;swimlaneHead=0;swimlaneBody=0;fillColor=none;collapsible=0;dropTarget=0;points=[[0,0.5],[1,0.5]];portConstraint=eastwest;top=0;left=0;right=0;bottom=0;" vertex="1" parent="NT3E-wE3VGaJPyhKOF_r-96">
          <mxGeometry y="120" width="214.75" height="30" as="geometry" />
        </mxCell>
        <mxCell id="NT3E-wE3VGaJPyhKOF_r-107" value="" style="shape=partialRectangle;connectable=0;fillColor=none;top=0;left=0;bottom=0;right=0;editable=1;overflow=hidden;whiteSpace=wrap;html=1;" vertex="1" parent="NT3E-wE3VGaJPyhKOF_r-106">
          <mxGeometry width="30" height="30" as="geometry">
            <mxRectangle width="30" height="30" as="alternateBounds" />
          </mxGeometry>
        </mxCell>
        <mxCell id="NT3E-wE3VGaJPyhKOF_r-108" value="Quantity_In_Stock (INTEGER)" style="shape=partialRectangle;connectable=0;fillColor=none;top=0;left=0;bottom=0;right=0;align=left;spacingLeft=6;overflow=hidden;whiteSpace=wrap;html=1;" vertex="1" parent="NT3E-wE3VGaJPyhKOF_r-106">
          <mxGeometry x="30" width="184.75" height="30" as="geometry">
            <mxRectangle width="184.75" height="30" as="alternateBounds" />
          </mxGeometry>
        </mxCell>
        <mxCell id="NT3E-wE3VGaJPyhKOF_r-112" value="Suppliers" style="shape=table;startSize=30;container=1;collapsible=1;childLayout=tableLayout;fixedRows=1;rowLines=0;fontStyle=1;align=center;resizeLast=1;html=1;" vertex="1" parent="1">
          <mxGeometry x="1030" y="160" width="180" height="180" as="geometry">
            <mxRectangle x="600" y="400" width="85" height="30" as="alternateBounds" />
          </mxGeometry>
        </mxCell>
        <mxCell id="NT3E-wE3VGaJPyhKOF_r-113" value="" style="shape=tableRow;horizontal=0;startSize=0;swimlaneHead=0;swimlaneBody=0;fillColor=none;collapsible=0;dropTarget=0;points=[[0,0.5],[1,0.5]];portConstraint=eastwest;top=0;left=0;right=0;bottom=1;" vertex="1" parent="NT3E-wE3VGaJPyhKOF_r-112">
          <mxGeometry y="30" width="180" height="30" as="geometry" />
        </mxCell>
        <mxCell id="NT3E-wE3VGaJPyhKOF_r-114" value="PK" style="shape=partialRectangle;connectable=0;fillColor=none;top=0;left=0;bottom=0;right=0;fontStyle=1;overflow=hidden;whiteSpace=wrap;html=1;" vertex="1" parent="NT3E-wE3VGaJPyhKOF_r-113">
          <mxGeometry width="30" height="30" as="geometry">
            <mxRectangle width="30" height="30" as="alternateBounds" />
          </mxGeometry>
        </mxCell>
        <mxCell id="NT3E-wE3VGaJPyhKOF_r-115" value="Supplier_ID (INTEGER)" style="shape=partialRectangle;connectable=0;fillColor=none;top=0;left=0;bottom=0;right=0;align=left;spacingLeft=6;fontStyle=5;overflow=hidden;whiteSpace=wrap;html=1;" vertex="1" parent="NT3E-wE3VGaJPyhKOF_r-113">
          <mxGeometry x="30" width="150" height="30" as="geometry">
            <mxRectangle width="150" height="30" as="alternateBounds" />
          </mxGeometry>
        </mxCell>
        <mxCell id="NT3E-wE3VGaJPyhKOF_r-116" value="" style="shape=tableRow;horizontal=0;startSize=0;swimlaneHead=0;swimlaneBody=0;fillColor=none;collapsible=0;dropTarget=0;points=[[0,0.5],[1,0.5]];portConstraint=eastwest;top=0;left=0;right=0;bottom=0;" vertex="1" parent="NT3E-wE3VGaJPyhKOF_r-112">
          <mxGeometry y="60" width="180" height="30" as="geometry" />
        </mxCell>
        <mxCell id="NT3E-wE3VGaJPyhKOF_r-117" value="" style="shape=partialRectangle;connectable=0;fillColor=none;top=0;left=0;bottom=0;right=0;editable=1;overflow=hidden;whiteSpace=wrap;html=1;" vertex="1" parent="NT3E-wE3VGaJPyhKOF_r-116">
          <mxGeometry width="30" height="30" as="geometry">
            <mxRectangle width="30" height="30" as="alternateBounds" />
          </mxGeometry>
        </mxCell>
        <mxCell id="NT3E-wE3VGaJPyhKOF_r-118" value="Company_Name (TEXT)" style="shape=partialRectangle;connectable=0;fillColor=none;top=0;left=0;bottom=0;right=0;align=left;spacingLeft=6;overflow=hidden;whiteSpace=wrap;html=1;" vertex="1" parent="NT3E-wE3VGaJPyhKOF_r-116">
          <mxGeometry x="30" width="150" height="30" as="geometry">
            <mxRectangle width="150" height="30" as="alternateBounds" />
          </mxGeometry>
        </mxCell>
        <mxCell id="NT3E-wE3VGaJPyhKOF_r-119" value="" style="shape=tableRow;horizontal=0;startSize=0;swimlaneHead=0;swimlaneBody=0;fillColor=none;collapsible=0;dropTarget=0;points=[[0,0.5],[1,0.5]];portConstraint=eastwest;top=0;left=0;right=0;bottom=0;" vertex="1" parent="NT3E-wE3VGaJPyhKOF_r-112">
          <mxGeometry y="90" width="180" height="30" as="geometry" />
        </mxCell>
        <mxCell id="NT3E-wE3VGaJPyhKOF_r-120" value="" style="shape=partialRectangle;connectable=0;fillColor=none;top=0;left=0;bottom=0;right=0;editable=1;overflow=hidden;whiteSpace=wrap;html=1;" vertex="1" parent="NT3E-wE3VGaJPyhKOF_r-119">
          <mxGeometry width="30" height="30" as="geometry">
            <mxRectangle width="30" height="30" as="alternateBounds" />
          </mxGeometry>
        </mxCell>
        <mxCell id="NT3E-wE3VGaJPyhKOF_r-121" value="Supplier_Address (TEXT)" style="shape=partialRectangle;connectable=0;fillColor=none;top=0;left=0;bottom=0;right=0;align=left;spacingLeft=6;overflow=hidden;whiteSpace=wrap;html=1;" vertex="1" parent="NT3E-wE3VGaJPyhKOF_r-119">
          <mxGeometry x="30" width="150" height="30" as="geometry">
            <mxRectangle width="150" height="30" as="alternateBounds" />
          </mxGeometry>
        </mxCell>
        <mxCell id="NT3E-wE3VGaJPyhKOF_r-122" value="" style="shape=tableRow;horizontal=0;startSize=0;swimlaneHead=0;swimlaneBody=0;fillColor=none;collapsible=0;dropTarget=0;points=[[0,0.5],[1,0.5]];portConstraint=eastwest;top=0;left=0;right=0;bottom=0;" vertex="1" parent="NT3E-wE3VGaJPyhKOF_r-112">
          <mxGeometry y="120" width="180" height="30" as="geometry" />
        </mxCell>
        <mxCell id="NT3E-wE3VGaJPyhKOF_r-123" value="" style="shape=partialRectangle;connectable=0;fillColor=none;top=0;left=0;bottom=0;right=0;editable=1;overflow=hidden;whiteSpace=wrap;html=1;" vertex="1" parent="NT3E-wE3VGaJPyhKOF_r-122">
          <mxGeometry width="30" height="30" as="geometry">
            <mxRectangle width="30" height="30" as="alternateBounds" />
          </mxGeometry>
        </mxCell>
        <mxCell id="NT3E-wE3VGaJPyhKOF_r-124" value="Phone&amp;nbsp;(TEXT)" style="shape=partialRectangle;connectable=0;fillColor=none;top=0;left=0;bottom=0;right=0;align=left;spacingLeft=6;overflow=hidden;whiteSpace=wrap;html=1;" vertex="1" parent="NT3E-wE3VGaJPyhKOF_r-122">
          <mxGeometry x="30" width="150" height="30" as="geometry">
            <mxRectangle width="150" height="30" as="alternateBounds" />
          </mxGeometry>
        </mxCell>
        <mxCell id="NT3E-wE3VGaJPyhKOF_r-125" value="" style="shape=tableRow;horizontal=0;startSize=0;swimlaneHead=0;swimlaneBody=0;fillColor=none;collapsible=0;dropTarget=0;points=[[0,0.5],[1,0.5]];portConstraint=eastwest;top=0;left=0;right=0;bottom=0;" vertex="1" parent="NT3E-wE3VGaJPyhKOF_r-112">
          <mxGeometry y="150" width="180" height="30" as="geometry" />
        </mxCell>
        <mxCell id="NT3E-wE3VGaJPyhKOF_r-126" value="" style="shape=partialRectangle;connectable=0;fillColor=none;top=0;left=0;bottom=0;right=0;editable=1;overflow=hidden;whiteSpace=wrap;html=1;" vertex="1" parent="NT3E-wE3VGaJPyhKOF_r-125">
          <mxGeometry width="30" height="30" as="geometry">
            <mxRectangle width="30" height="30" as="alternateBounds" />
          </mxGeometry>
        </mxCell>
        <mxCell id="NT3E-wE3VGaJPyhKOF_r-127" value="Email&amp;nbsp;(TEXT)" style="shape=partialRectangle;connectable=0;fillColor=none;top=0;left=0;bottom=0;right=0;align=left;spacingLeft=6;overflow=hidden;whiteSpace=wrap;html=1;" vertex="1" parent="NT3E-wE3VGaJPyhKOF_r-125">
          <mxGeometry x="30" width="150" height="30" as="geometry">
            <mxRectangle width="150" height="30" as="alternateBounds" />
          </mxGeometry>
        </mxCell>
        <mxCell id="NT3E-wE3VGaJPyhKOF_r-128" value="Customer_Reviews" style="shape=table;startSize=30;container=1;collapsible=1;childLayout=tableLayout;fixedRows=1;rowLines=0;fontStyle=1;align=center;resizeLast=1;html=1;" vertex="1" parent="1">
          <mxGeometry x="690" y="640" width="180" height="180" as="geometry">
            <mxRectangle x="352" y="580" width="139" height="30" as="alternateBounds" />
          </mxGeometry>
        </mxCell>
        <mxCell id="NT3E-wE3VGaJPyhKOF_r-129" value="" style="shape=tableRow;horizontal=0;startSize=0;swimlaneHead=0;swimlaneBody=0;fillColor=none;collapsible=0;dropTarget=0;points=[[0,0.5],[1,0.5]];portConstraint=eastwest;top=0;left=0;right=0;bottom=1;" vertex="1" parent="NT3E-wE3VGaJPyhKOF_r-128">
          <mxGeometry y="30" width="180" height="30" as="geometry" />
        </mxCell>
        <mxCell id="NT3E-wE3VGaJPyhKOF_r-130" value="PK" style="shape=partialRectangle;connectable=0;fillColor=none;top=0;left=0;bottom=0;right=0;fontStyle=1;overflow=hidden;whiteSpace=wrap;html=1;" vertex="1" parent="NT3E-wE3VGaJPyhKOF_r-129">
          <mxGeometry width="30" height="30" as="geometry">
            <mxRectangle width="30" height="30" as="alternateBounds" />
          </mxGeometry>
        </mxCell>
        <mxCell id="NT3E-wE3VGaJPyhKOF_r-131" value="Review_ID (INTEGER)" style="shape=partialRectangle;connectable=0;fillColor=none;top=0;left=0;bottom=0;right=0;align=left;spacingLeft=6;fontStyle=5;overflow=hidden;whiteSpace=wrap;html=1;" vertex="1" parent="NT3E-wE3VGaJPyhKOF_r-129">
          <mxGeometry x="30" width="150" height="30" as="geometry">
            <mxRectangle width="150" height="30" as="alternateBounds" />
          </mxGeometry>
        </mxCell>
        <mxCell id="NT3E-wE3VGaJPyhKOF_r-135" value="" style="shape=tableRow;horizontal=0;startSize=0;swimlaneHead=0;swimlaneBody=0;fillColor=none;collapsible=0;dropTarget=0;points=[[0,0.5],[1,0.5]];portConstraint=eastwest;top=0;left=0;right=0;bottom=0;" vertex="1" parent="NT3E-wE3VGaJPyhKOF_r-128">
          <mxGeometry y="60" width="180" height="30" as="geometry" />
        </mxCell>
        <mxCell id="NT3E-wE3VGaJPyhKOF_r-136" value="FK" style="shape=partialRectangle;connectable=0;fillColor=none;top=0;left=0;bottom=0;right=0;editable=1;overflow=hidden;whiteSpace=wrap;html=1;" vertex="1" parent="NT3E-wE3VGaJPyhKOF_r-135">
          <mxGeometry width="30" height="30" as="geometry">
            <mxRectangle width="30" height="30" as="alternateBounds" />
          </mxGeometry>
        </mxCell>
        <mxCell id="NT3E-wE3VGaJPyhKOF_r-137" value="Product_ID (INTEGER)" style="shape=partialRectangle;connectable=0;fillColor=none;top=0;left=0;bottom=0;right=0;align=left;spacingLeft=6;overflow=hidden;whiteSpace=wrap;html=1;" vertex="1" parent="NT3E-wE3VGaJPyhKOF_r-135">
          <mxGeometry x="30" width="150" height="30" as="geometry">
            <mxRectangle width="150" height="30" as="alternateBounds" />
          </mxGeometry>
        </mxCell>
        <mxCell id="NT3E-wE3VGaJPyhKOF_r-132" value="" style="shape=tableRow;horizontal=0;startSize=0;swimlaneHead=0;swimlaneBody=0;fillColor=none;collapsible=0;dropTarget=0;points=[[0,0.5],[1,0.5]];portConstraint=eastwest;top=0;left=0;right=0;bottom=0;" vertex="1" parent="NT3E-wE3VGaJPyhKOF_r-128">
          <mxGeometry y="90" width="180" height="30" as="geometry" />
        </mxCell>
        <mxCell id="NT3E-wE3VGaJPyhKOF_r-133" value="FK" style="shape=partialRectangle;connectable=0;fillColor=none;top=0;left=0;bottom=0;right=0;editable=1;overflow=hidden;whiteSpace=wrap;html=1;" vertex="1" parent="NT3E-wE3VGaJPyhKOF_r-132">
          <mxGeometry width="30" height="30" as="geometry">
            <mxRectangle width="30" height="30" as="alternateBounds" />
          </mxGeometry>
        </mxCell>
        <mxCell id="NT3E-wE3VGaJPyhKOF_r-134" value="Customer_ID (INTEGER)" style="shape=partialRectangle;connectable=0;fillColor=none;top=0;left=0;bottom=0;right=0;align=left;spacingLeft=6;overflow=hidden;whiteSpace=wrap;html=1;" vertex="1" parent="NT3E-wE3VGaJPyhKOF_r-132">
          <mxGeometry x="30" width="150" height="30" as="geometry">
            <mxRectangle width="150" height="30" as="alternateBounds" />
          </mxGeometry>
        </mxCell>
        <mxCell id="NT3E-wE3VGaJPyhKOF_r-138" value="" style="shape=tableRow;horizontal=0;startSize=0;swimlaneHead=0;swimlaneBody=0;fillColor=none;collapsible=0;dropTarget=0;points=[[0,0.5],[1,0.5]];portConstraint=eastwest;top=0;left=0;right=0;bottom=0;" vertex="1" parent="NT3E-wE3VGaJPyhKOF_r-128">
          <mxGeometry y="120" width="180" height="30" as="geometry" />
        </mxCell>
        <mxCell id="NT3E-wE3VGaJPyhKOF_r-139" value="" style="shape=partialRectangle;connectable=0;fillColor=none;top=0;left=0;bottom=0;right=0;editable=1;overflow=hidden;whiteSpace=wrap;html=1;" vertex="1" parent="NT3E-wE3VGaJPyhKOF_r-138">
          <mxGeometry width="30" height="30" as="geometry">
            <mxRectangle width="30" height="30" as="alternateBounds" />
          </mxGeometry>
        </mxCell>
        <mxCell id="NT3E-wE3VGaJPyhKOF_r-140" value="Rating (INTEGER)" style="shape=partialRectangle;connectable=0;fillColor=none;top=0;left=0;bottom=0;right=0;align=left;spacingLeft=6;overflow=hidden;whiteSpace=wrap;html=1;" vertex="1" parent="NT3E-wE3VGaJPyhKOF_r-138">
          <mxGeometry x="30" width="150" height="30" as="geometry">
            <mxRectangle width="150" height="30" as="alternateBounds" />
          </mxGeometry>
        </mxCell>
        <mxCell id="NT3E-wE3VGaJPyhKOF_r-141" value="" style="shape=tableRow;horizontal=0;startSize=0;swimlaneHead=0;swimlaneBody=0;fillColor=none;collapsible=0;dropTarget=0;points=[[0,0.5],[1,0.5]];portConstraint=eastwest;top=0;left=0;right=0;bottom=0;" vertex="1" parent="NT3E-wE3VGaJPyhKOF_r-128">
          <mxGeometry y="150" width="180" height="30" as="geometry" />
        </mxCell>
        <mxCell id="NT3E-wE3VGaJPyhKOF_r-142" value="" style="shape=partialRectangle;connectable=0;fillColor=none;top=0;left=0;bottom=0;right=0;editable=1;overflow=hidden;whiteSpace=wrap;html=1;" vertex="1" parent="NT3E-wE3VGaJPyhKOF_r-141">
          <mxGeometry width="30" height="30" as="geometry">
            <mxRectangle width="30" height="30" as="alternateBounds" />
          </mxGeometry>
        </mxCell>
        <mxCell id="NT3E-wE3VGaJPyhKOF_r-143" value="Comment&amp;nbsp;(TEXT)" style="shape=partialRectangle;connectable=0;fillColor=none;top=0;left=0;bottom=0;right=0;align=left;spacingLeft=6;overflow=hidden;whiteSpace=wrap;html=1;" vertex="1" parent="NT3E-wE3VGaJPyhKOF_r-141">
          <mxGeometry x="30" width="150" height="30" as="geometry">
            <mxRectangle width="150" height="30" as="alternateBounds" />
          </mxGeometry>
        </mxCell>
        <mxCell id="NT3E-wE3VGaJPyhKOF_r-144" value="Warehouse_Locations" style="shape=table;startSize=30;container=1;collapsible=1;childLayout=tableLayout;fixedRows=1;rowLines=0;fontStyle=1;align=center;resizeLast=1;html=1;" vertex="1" parent="1">
          <mxGeometry x="1030" y="360" width="209.75" height="150" as="geometry">
            <mxRectangle x="40" y="50" width="154" height="30" as="alternateBounds" />
          </mxGeometry>
        </mxCell>
        <mxCell id="NT3E-wE3VGaJPyhKOF_r-145" value="" style="shape=tableRow;horizontal=0;startSize=0;swimlaneHead=0;swimlaneBody=0;fillColor=none;collapsible=0;dropTarget=0;points=[[0,0.5],[1,0.5]];portConstraint=eastwest;top=0;left=0;right=0;bottom=1;" vertex="1" parent="NT3E-wE3VGaJPyhKOF_r-144">
          <mxGeometry y="30" width="209.75" height="30" as="geometry" />
        </mxCell>
        <mxCell id="NT3E-wE3VGaJPyhKOF_r-146" value="PK" style="shape=partialRectangle;connectable=0;fillColor=none;top=0;left=0;bottom=0;right=0;fontStyle=1;overflow=hidden;whiteSpace=wrap;html=1;" vertex="1" parent="NT3E-wE3VGaJPyhKOF_r-145">
          <mxGeometry width="30" height="30" as="geometry">
            <mxRectangle width="30" height="30" as="alternateBounds" />
          </mxGeometry>
        </mxCell>
        <mxCell id="NT3E-wE3VGaJPyhKOF_r-147" value="Warehous_ID (INTEGER)" style="shape=partialRectangle;connectable=0;fillColor=none;top=0;left=0;bottom=0;right=0;align=left;spacingLeft=6;fontStyle=5;overflow=hidden;whiteSpace=wrap;html=1;" vertex="1" parent="NT3E-wE3VGaJPyhKOF_r-145">
          <mxGeometry x="30" width="179.75" height="30" as="geometry">
            <mxRectangle width="179.75" height="30" as="alternateBounds" />
          </mxGeometry>
        </mxCell>
        <mxCell id="NT3E-wE3VGaJPyhKOF_r-148" value="" style="shape=tableRow;horizontal=0;startSize=0;swimlaneHead=0;swimlaneBody=0;fillColor=none;collapsible=0;dropTarget=0;points=[[0,0.5],[1,0.5]];portConstraint=eastwest;top=0;left=0;right=0;bottom=0;" vertex="1" parent="NT3E-wE3VGaJPyhKOF_r-144">
          <mxGeometry y="60" width="209.75" height="30" as="geometry" />
        </mxCell>
        <mxCell id="NT3E-wE3VGaJPyhKOF_r-149" value="" style="shape=partialRectangle;connectable=0;fillColor=none;top=0;left=0;bottom=0;right=0;editable=1;overflow=hidden;whiteSpace=wrap;html=1;" vertex="1" parent="NT3E-wE3VGaJPyhKOF_r-148">
          <mxGeometry width="30" height="30" as="geometry">
            <mxRectangle width="30" height="30" as="alternateBounds" />
          </mxGeometry>
        </mxCell>
        <mxCell id="NT3E-wE3VGaJPyhKOF_r-150" value="Warehouse_Name (TEXT)" style="shape=partialRectangle;connectable=0;fillColor=none;top=0;left=0;bottom=0;right=0;align=left;spacingLeft=6;overflow=hidden;whiteSpace=wrap;html=1;" vertex="1" parent="NT3E-wE3VGaJPyhKOF_r-148">
          <mxGeometry x="30" width="179.75" height="30" as="geometry">
            <mxRectangle width="179.75" height="30" as="alternateBounds" />
          </mxGeometry>
        </mxCell>
        <mxCell id="NT3E-wE3VGaJPyhKOF_r-151" value="" style="shape=tableRow;horizontal=0;startSize=0;swimlaneHead=0;swimlaneBody=0;fillColor=none;collapsible=0;dropTarget=0;points=[[0,0.5],[1,0.5]];portConstraint=eastwest;top=0;left=0;right=0;bottom=0;" vertex="1" parent="NT3E-wE3VGaJPyhKOF_r-144">
          <mxGeometry y="90" width="209.75" height="30" as="geometry" />
        </mxCell>
        <mxCell id="NT3E-wE3VGaJPyhKOF_r-152" value="" style="shape=partialRectangle;connectable=0;fillColor=none;top=0;left=0;bottom=0;right=0;editable=1;overflow=hidden;whiteSpace=wrap;html=1;" vertex="1" parent="NT3E-wE3VGaJPyhKOF_r-151">
          <mxGeometry width="30" height="30" as="geometry">
            <mxRectangle width="30" height="30" as="alternateBounds" />
          </mxGeometry>
        </mxCell>
        <mxCell id="NT3E-wE3VGaJPyhKOF_r-153" value="Warehouse_Address (TEXT)" style="shape=partialRectangle;connectable=0;fillColor=none;top=0;left=0;bottom=0;right=0;align=left;spacingLeft=6;overflow=hidden;whiteSpace=wrap;html=1;" vertex="1" parent="NT3E-wE3VGaJPyhKOF_r-151">
          <mxGeometry x="30" width="179.75" height="30" as="geometry">
            <mxRectangle width="179.75" height="30" as="alternateBounds" />
          </mxGeometry>
        </mxCell>
        <mxCell id="NT3E-wE3VGaJPyhKOF_r-154" value="" style="shape=tableRow;horizontal=0;startSize=0;swimlaneHead=0;swimlaneBody=0;fillColor=none;collapsible=0;dropTarget=0;points=[[0,0.5],[1,0.5]];portConstraint=eastwest;top=0;left=0;right=0;bottom=0;" vertex="1" parent="NT3E-wE3VGaJPyhKOF_r-144">
          <mxGeometry y="120" width="209.75" height="30" as="geometry" />
        </mxCell>
        <mxCell id="NT3E-wE3VGaJPyhKOF_r-155" value="" style="shape=partialRectangle;connectable=0;fillColor=none;top=0;left=0;bottom=0;right=0;editable=1;overflow=hidden;whiteSpace=wrap;html=1;" vertex="1" parent="NT3E-wE3VGaJPyhKOF_r-154">
          <mxGeometry width="30" height="30" as="geometry">
            <mxRectangle width="30" height="30" as="alternateBounds" />
          </mxGeometry>
        </mxCell>
        <mxCell id="NT3E-wE3VGaJPyhKOF_r-156" value="Storage_Capacity (INTEGER)" style="shape=partialRectangle;connectable=0;fillColor=none;top=0;left=0;bottom=0;right=0;align=left;spacingLeft=6;overflow=hidden;whiteSpace=wrap;html=1;" vertex="1" parent="NT3E-wE3VGaJPyhKOF_r-154">
          <mxGeometry x="30" width="179.75" height="30" as="geometry">
            <mxRectangle width="179.75" height="30" as="alternateBounds" />
          </mxGeometry>
        </mxCell>
        <mxCell id="NT3E-wE3VGaJPyhKOF_r-157" value="Consumption_List" style="shape=table;startSize=30;container=1;collapsible=1;childLayout=tableLayout;fixedRows=1;rowLines=0;fontStyle=1;align=center;resizeLast=1;html=1;" vertex="1" parent="1">
          <mxGeometry x="5.684341886080802e-14" y="680" width="212.75" height="150" as="geometry">
            <mxRectangle x="-349.99999999999994" y="680" width="131" height="30" as="alternateBounds" />
          </mxGeometry>
        </mxCell>
        <mxCell id="NT3E-wE3VGaJPyhKOF_r-158" value="" style="shape=tableRow;horizontal=0;startSize=0;swimlaneHead=0;swimlaneBody=0;fillColor=none;collapsible=0;dropTarget=0;points=[[0,0.5],[1,0.5]];portConstraint=eastwest;top=0;left=0;right=0;bottom=1;" vertex="1" parent="NT3E-wE3VGaJPyhKOF_r-157">
          <mxGeometry y="30" width="212.75" height="30" as="geometry" />
        </mxCell>
        <mxCell id="NT3E-wE3VGaJPyhKOF_r-159" value="PK" style="shape=partialRectangle;connectable=0;fillColor=none;top=0;left=0;bottom=0;right=0;fontStyle=1;overflow=hidden;whiteSpace=wrap;html=1;" vertex="1" parent="NT3E-wE3VGaJPyhKOF_r-158">
          <mxGeometry width="30" height="30" as="geometry">
            <mxRectangle width="30" height="30" as="alternateBounds" />
          </mxGeometry>
        </mxCell>
        <mxCell id="NT3E-wE3VGaJPyhKOF_r-160" value="Consumption_ID (INTEGER)" style="shape=partialRectangle;connectable=0;fillColor=none;top=0;left=0;bottom=0;right=0;align=left;spacingLeft=6;fontStyle=5;overflow=hidden;whiteSpace=wrap;html=1;" vertex="1" parent="NT3E-wE3VGaJPyhKOF_r-158">
          <mxGeometry x="30" width="182.75" height="30" as="geometry">
            <mxRectangle width="182.75" height="30" as="alternateBounds" />
          </mxGeometry>
        </mxCell>
        <mxCell id="NT3E-wE3VGaJPyhKOF_r-164" value="" style="shape=tableRow;horizontal=0;startSize=0;swimlaneHead=0;swimlaneBody=0;fillColor=none;collapsible=0;dropTarget=0;points=[[0,0.5],[1,0.5]];portConstraint=eastwest;top=0;left=0;right=0;bottom=0;" vertex="1" parent="NT3E-wE3VGaJPyhKOF_r-157">
          <mxGeometry y="60" width="212.75" height="30" as="geometry" />
        </mxCell>
        <mxCell id="NT3E-wE3VGaJPyhKOF_r-165" value="FK" style="shape=partialRectangle;connectable=0;fillColor=none;top=0;left=0;bottom=0;right=0;editable=1;overflow=hidden;whiteSpace=wrap;html=1;" vertex="1" parent="NT3E-wE3VGaJPyhKOF_r-164">
          <mxGeometry width="30" height="30" as="geometry">
            <mxRectangle width="30" height="30" as="alternateBounds" />
          </mxGeometry>
        </mxCell>
        <mxCell id="NT3E-wE3VGaJPyhKOF_r-166" value="Product_ID (INTEGER)" style="shape=partialRectangle;connectable=0;fillColor=none;top=0;left=0;bottom=0;right=0;align=left;spacingLeft=6;overflow=hidden;whiteSpace=wrap;html=1;" vertex="1" parent="NT3E-wE3VGaJPyhKOF_r-164">
          <mxGeometry x="30" width="182.75" height="30" as="geometry">
            <mxRectangle width="182.75" height="30" as="alternateBounds" />
          </mxGeometry>
        </mxCell>
        <mxCell id="NT3E-wE3VGaJPyhKOF_r-161" value="" style="shape=tableRow;horizontal=0;startSize=0;swimlaneHead=0;swimlaneBody=0;fillColor=none;collapsible=0;dropTarget=0;points=[[0,0.5],[1,0.5]];portConstraint=eastwest;top=0;left=0;right=0;bottom=0;" vertex="1" parent="NT3E-wE3VGaJPyhKOF_r-157">
          <mxGeometry y="90" width="212.75" height="30" as="geometry" />
        </mxCell>
        <mxCell id="NT3E-wE3VGaJPyhKOF_r-162" value="FK" style="shape=partialRectangle;connectable=0;fillColor=none;top=0;left=0;bottom=0;right=0;editable=1;overflow=hidden;whiteSpace=wrap;html=1;" vertex="1" parent="NT3E-wE3VGaJPyhKOF_r-161">
          <mxGeometry width="30" height="30" as="geometry">
            <mxRectangle width="30" height="30" as="alternateBounds" />
          </mxGeometry>
        </mxCell>
        <mxCell id="NT3E-wE3VGaJPyhKOF_r-163" value="Customer_ID (INTEGER)" style="shape=partialRectangle;connectable=0;fillColor=none;top=0;left=0;bottom=0;right=0;align=left;spacingLeft=6;overflow=hidden;whiteSpace=wrap;html=1;" vertex="1" parent="NT3E-wE3VGaJPyhKOF_r-161">
          <mxGeometry x="30" width="182.75" height="30" as="geometry">
            <mxRectangle width="182.75" height="30" as="alternateBounds" />
          </mxGeometry>
        </mxCell>
        <mxCell id="NT3E-wE3VGaJPyhKOF_r-167" value="" style="shape=tableRow;horizontal=0;startSize=0;swimlaneHead=0;swimlaneBody=0;fillColor=none;collapsible=0;dropTarget=0;points=[[0,0.5],[1,0.5]];portConstraint=eastwest;top=0;left=0;right=0;bottom=0;" vertex="1" parent="NT3E-wE3VGaJPyhKOF_r-157">
          <mxGeometry y="120" width="212.75" height="30" as="geometry" />
        </mxCell>
        <mxCell id="NT3E-wE3VGaJPyhKOF_r-168" value="" style="shape=partialRectangle;connectable=0;fillColor=none;top=0;left=0;bottom=0;right=0;editable=1;overflow=hidden;whiteSpace=wrap;html=1;" vertex="1" parent="NT3E-wE3VGaJPyhKOF_r-167">
          <mxGeometry width="30" height="30" as="geometry">
            <mxRectangle width="30" height="30" as="alternateBounds" />
          </mxGeometry>
        </mxCell>
        <mxCell id="NT3E-wE3VGaJPyhKOF_r-169" value="Purshase_Date&amp;nbsp;(TEXT)" style="shape=partialRectangle;connectable=0;fillColor=none;top=0;left=0;bottom=0;right=0;align=left;spacingLeft=6;overflow=hidden;whiteSpace=wrap;html=1;" vertex="1" parent="NT3E-wE3VGaJPyhKOF_r-167">
          <mxGeometry x="30" width="182.75" height="30" as="geometry">
            <mxRectangle width="182.75" height="30" as="alternateBounds" />
          </mxGeometry>
        </mxCell>
        <mxCell id="NT3E-wE3VGaJPyhKOF_r-170" value="Payments" style="shape=table;startSize=30;container=1;collapsible=1;childLayout=tableLayout;fixedRows=1;rowLines=0;fontStyle=1;align=center;resizeLast=1;html=1;" vertex="1" parent="1">
          <mxGeometry x="1029" y="880" width="192.75" height="180" as="geometry">
            <mxRectangle x="830.88" y="1080" width="88" height="30" as="alternateBounds" />
          </mxGeometry>
        </mxCell>
        <mxCell id="NT3E-wE3VGaJPyhKOF_r-171" value="" style="shape=tableRow;horizontal=0;startSize=0;swimlaneHead=0;swimlaneBody=0;fillColor=none;collapsible=0;dropTarget=0;points=[[0,0.5],[1,0.5]];portConstraint=eastwest;top=0;left=0;right=0;bottom=1;" vertex="1" parent="NT3E-wE3VGaJPyhKOF_r-170">
          <mxGeometry y="30" width="192.75" height="30" as="geometry" />
        </mxCell>
        <mxCell id="NT3E-wE3VGaJPyhKOF_r-172" value="PK" style="shape=partialRectangle;connectable=0;fillColor=none;top=0;left=0;bottom=0;right=0;fontStyle=1;overflow=hidden;whiteSpace=wrap;html=1;" vertex="1" parent="NT3E-wE3VGaJPyhKOF_r-171">
          <mxGeometry width="30" height="30" as="geometry">
            <mxRectangle width="30" height="30" as="alternateBounds" />
          </mxGeometry>
        </mxCell>
        <mxCell id="NT3E-wE3VGaJPyhKOF_r-173" value="Payment_ID (INTEGER)" style="shape=partialRectangle;connectable=0;fillColor=none;top=0;left=0;bottom=0;right=0;align=left;spacingLeft=6;fontStyle=5;overflow=hidden;whiteSpace=wrap;html=1;" vertex="1" parent="NT3E-wE3VGaJPyhKOF_r-171">
          <mxGeometry x="30" width="162.75" height="30" as="geometry">
            <mxRectangle width="162.75" height="30" as="alternateBounds" />
          </mxGeometry>
        </mxCell>
        <mxCell id="NT3E-wE3VGaJPyhKOF_r-174" value="" style="shape=tableRow;horizontal=0;startSize=0;swimlaneHead=0;swimlaneBody=0;fillColor=none;collapsible=0;dropTarget=0;points=[[0,0.5],[1,0.5]];portConstraint=eastwest;top=0;left=0;right=0;bottom=0;" vertex="1" parent="NT3E-wE3VGaJPyhKOF_r-170">
          <mxGeometry y="60" width="192.75" height="30" as="geometry" />
        </mxCell>
        <mxCell id="NT3E-wE3VGaJPyhKOF_r-175" value="FK" style="shape=partialRectangle;connectable=0;fillColor=none;top=0;left=0;bottom=0;right=0;editable=1;overflow=hidden;whiteSpace=wrap;html=1;" vertex="1" parent="NT3E-wE3VGaJPyhKOF_r-174">
          <mxGeometry width="30" height="30" as="geometry">
            <mxRectangle width="30" height="30" as="alternateBounds" />
          </mxGeometry>
        </mxCell>
        <mxCell id="NT3E-wE3VGaJPyhKOF_r-176" value="Order_ID (INTEGER)" style="shape=partialRectangle;connectable=0;fillColor=none;top=0;left=0;bottom=0;right=0;align=left;spacingLeft=6;overflow=hidden;whiteSpace=wrap;html=1;" vertex="1" parent="NT3E-wE3VGaJPyhKOF_r-174">
          <mxGeometry x="30" width="162.75" height="30" as="geometry">
            <mxRectangle width="162.75" height="30" as="alternateBounds" />
          </mxGeometry>
        </mxCell>
        <mxCell id="NT3E-wE3VGaJPyhKOF_r-177" value="" style="shape=tableRow;horizontal=0;startSize=0;swimlaneHead=0;swimlaneBody=0;fillColor=none;collapsible=0;dropTarget=0;points=[[0,0.5],[1,0.5]];portConstraint=eastwest;top=0;left=0;right=0;bottom=0;" vertex="1" parent="NT3E-wE3VGaJPyhKOF_r-170">
          <mxGeometry y="90" width="192.75" height="30" as="geometry" />
        </mxCell>
        <mxCell id="NT3E-wE3VGaJPyhKOF_r-178" value="" style="shape=partialRectangle;connectable=0;fillColor=none;top=0;left=0;bottom=0;right=0;editable=1;overflow=hidden;whiteSpace=wrap;html=1;" vertex="1" parent="NT3E-wE3VGaJPyhKOF_r-177">
          <mxGeometry width="30" height="30" as="geometry">
            <mxRectangle width="30" height="30" as="alternateBounds" />
          </mxGeometry>
        </mxCell>
        <mxCell id="NT3E-wE3VGaJPyhKOF_r-179" value="Amount (REAL)" style="shape=partialRectangle;connectable=0;fillColor=none;top=0;left=0;bottom=0;right=0;align=left;spacingLeft=6;overflow=hidden;whiteSpace=wrap;html=1;" vertex="1" parent="NT3E-wE3VGaJPyhKOF_r-177">
          <mxGeometry x="30" width="162.75" height="30" as="geometry">
            <mxRectangle width="162.75" height="30" as="alternateBounds" />
          </mxGeometry>
        </mxCell>
        <mxCell id="NT3E-wE3VGaJPyhKOF_r-180" value="" style="shape=tableRow;horizontal=0;startSize=0;swimlaneHead=0;swimlaneBody=0;fillColor=none;collapsible=0;dropTarget=0;points=[[0,0.5],[1,0.5]];portConstraint=eastwest;top=0;left=0;right=0;bottom=0;" vertex="1" parent="NT3E-wE3VGaJPyhKOF_r-170">
          <mxGeometry y="120" width="192.75" height="30" as="geometry" />
        </mxCell>
        <mxCell id="NT3E-wE3VGaJPyhKOF_r-181" value="" style="shape=partialRectangle;connectable=0;fillColor=none;top=0;left=0;bottom=0;right=0;editable=1;overflow=hidden;whiteSpace=wrap;html=1;" vertex="1" parent="NT3E-wE3VGaJPyhKOF_r-180">
          <mxGeometry width="30" height="30" as="geometry">
            <mxRectangle width="30" height="30" as="alternateBounds" />
          </mxGeometry>
        </mxCell>
        <mxCell id="NT3E-wE3VGaJPyhKOF_r-182" value="Payment_Method&amp;nbsp;(TEXT)" style="shape=partialRectangle;connectable=0;fillColor=none;top=0;left=0;bottom=0;right=0;align=left;spacingLeft=6;overflow=hidden;whiteSpace=wrap;html=1;" vertex="1" parent="NT3E-wE3VGaJPyhKOF_r-180">
          <mxGeometry x="30" width="162.75" height="30" as="geometry">
            <mxRectangle width="162.75" height="30" as="alternateBounds" />
          </mxGeometry>
        </mxCell>
        <mxCell id="NT3E-wE3VGaJPyhKOF_r-183" value="" style="shape=tableRow;horizontal=0;startSize=0;swimlaneHead=0;swimlaneBody=0;fillColor=none;collapsible=0;dropTarget=0;points=[[0,0.5],[1,0.5]];portConstraint=eastwest;top=0;left=0;right=0;bottom=0;" vertex="1" parent="NT3E-wE3VGaJPyhKOF_r-170">
          <mxGeometry y="150" width="192.75" height="30" as="geometry" />
        </mxCell>
        <mxCell id="NT3E-wE3VGaJPyhKOF_r-184" value="" style="shape=partialRectangle;connectable=0;fillColor=none;top=0;left=0;bottom=0;right=0;editable=1;overflow=hidden;whiteSpace=wrap;html=1;" vertex="1" parent="NT3E-wE3VGaJPyhKOF_r-183">
          <mxGeometry width="30" height="30" as="geometry">
            <mxRectangle width="30" height="30" as="alternateBounds" />
          </mxGeometry>
        </mxCell>
        <mxCell id="NT3E-wE3VGaJPyhKOF_r-185" value="Payment_Status&amp;nbsp;(TEXT)" style="shape=partialRectangle;connectable=0;fillColor=none;top=0;left=0;bottom=0;right=0;align=left;spacingLeft=6;overflow=hidden;whiteSpace=wrap;html=1;" vertex="1" parent="NT3E-wE3VGaJPyhKOF_r-183">
          <mxGeometry x="30" width="162.75" height="30" as="geometry">
            <mxRectangle width="162.75" height="30" as="alternateBounds" />
          </mxGeometry>
        </mxCell>
        <mxCell id="NT3E-wE3VGaJPyhKOF_r-186" value="ProductCategories" style="shape=table;startSize=30;container=1;collapsible=1;childLayout=tableLayout;fixedRows=1;rowLines=0;fontStyle=1;align=center;resizeLast=1;html=1;" vertex="1" parent="1">
          <mxGeometry x="690" width="222.65517241379317" height="120" as="geometry">
            <mxRectangle x="350" y="20" width="134" height="30" as="alternateBounds" />
          </mxGeometry>
        </mxCell>
        <mxCell id="NT3E-wE3VGaJPyhKOF_r-187" value="" style="shape=tableRow;horizontal=0;startSize=0;swimlaneHead=0;swimlaneBody=0;fillColor=none;collapsible=0;dropTarget=0;points=[[0,0.5],[1,0.5]];portConstraint=eastwest;top=0;left=0;right=0;bottom=1;" vertex="1" parent="NT3E-wE3VGaJPyhKOF_r-186">
          <mxGeometry y="30" width="222.65517241379317" height="30" as="geometry" />
        </mxCell>
        <mxCell id="NT3E-wE3VGaJPyhKOF_r-188" value="PK" style="shape=partialRectangle;connectable=0;fillColor=none;top=0;left=0;bottom=0;right=0;fontStyle=1;overflow=hidden;whiteSpace=wrap;html=1;" vertex="1" parent="NT3E-wE3VGaJPyhKOF_r-187">
          <mxGeometry width="30" height="30" as="geometry">
            <mxRectangle width="30" height="30" as="alternateBounds" />
          </mxGeometry>
        </mxCell>
        <mxCell id="NT3E-wE3VGaJPyhKOF_r-189" value="&lt;span style=&quot;text-align: center; text-wrap: nowrap;&quot;&gt;ProductCategory_ID (INTEGER)&lt;/span&gt;" style="shape=partialRectangle;connectable=0;fillColor=none;top=0;left=0;bottom=0;right=0;align=left;spacingLeft=6;fontStyle=5;overflow=hidden;whiteSpace=wrap;html=1;" vertex="1" parent="NT3E-wE3VGaJPyhKOF_r-187">
          <mxGeometry x="30" width="192.65517241379317" height="30" as="geometry">
            <mxRectangle width="192.65517241379317" height="30" as="alternateBounds" />
          </mxGeometry>
        </mxCell>
        <mxCell id="NT3E-wE3VGaJPyhKOF_r-190" value="" style="shape=tableRow;horizontal=0;startSize=0;swimlaneHead=0;swimlaneBody=0;fillColor=none;collapsible=0;dropTarget=0;points=[[0,0.5],[1,0.5]];portConstraint=eastwest;top=0;left=0;right=0;bottom=0;" vertex="1" parent="NT3E-wE3VGaJPyhKOF_r-186">
          <mxGeometry y="60" width="222.65517241379317" height="30" as="geometry" />
        </mxCell>
        <mxCell id="NT3E-wE3VGaJPyhKOF_r-191" value="FK" style="shape=partialRectangle;connectable=0;fillColor=none;top=0;left=0;bottom=0;right=0;editable=1;overflow=hidden;whiteSpace=wrap;html=1;" vertex="1" parent="NT3E-wE3VGaJPyhKOF_r-190">
          <mxGeometry width="30" height="30" as="geometry">
            <mxRectangle width="30" height="30" as="alternateBounds" />
          </mxGeometry>
        </mxCell>
        <mxCell id="NT3E-wE3VGaJPyhKOF_r-192" value="&lt;span style=&quot;text-decoration-line: underline;&quot;&gt;Product_ID (INTEGER)&lt;/span&gt;" style="shape=partialRectangle;connectable=0;fillColor=none;top=0;left=0;bottom=0;right=0;align=left;spacingLeft=6;overflow=hidden;whiteSpace=wrap;html=1;" vertex="1" parent="NT3E-wE3VGaJPyhKOF_r-190">
          <mxGeometry x="30" width="192.65517241379317" height="30" as="geometry">
            <mxRectangle width="192.65517241379317" height="30" as="alternateBounds" />
          </mxGeometry>
        </mxCell>
        <mxCell id="NT3E-wE3VGaJPyhKOF_r-193" value="" style="shape=tableRow;horizontal=0;startSize=0;swimlaneHead=0;swimlaneBody=0;fillColor=none;collapsible=0;dropTarget=0;points=[[0,0.5],[1,0.5]];portConstraint=eastwest;top=0;left=0;right=0;bottom=0;" vertex="1" parent="NT3E-wE3VGaJPyhKOF_r-186">
          <mxGeometry y="90" width="222.65517241379317" height="30" as="geometry" />
        </mxCell>
        <mxCell id="NT3E-wE3VGaJPyhKOF_r-194" value="FK" style="shape=partialRectangle;connectable=0;fillColor=none;top=0;left=0;bottom=0;right=0;editable=1;overflow=hidden;whiteSpace=wrap;html=1;" vertex="1" parent="NT3E-wE3VGaJPyhKOF_r-193">
          <mxGeometry width="30" height="30" as="geometry">
            <mxRectangle width="30" height="30" as="alternateBounds" />
          </mxGeometry>
        </mxCell>
        <mxCell id="NT3E-wE3VGaJPyhKOF_r-195" value="&lt;span style=&quot;text-decoration-line: underline;&quot;&gt;Category_ID (INTEGER)&lt;/span&gt;" style="shape=partialRectangle;connectable=0;fillColor=none;top=0;left=0;bottom=0;right=0;align=left;spacingLeft=6;overflow=hidden;whiteSpace=wrap;html=1;" vertex="1" parent="NT3E-wE3VGaJPyhKOF_r-193">
          <mxGeometry x="30" width="192.65517241379317" height="30" as="geometry">
            <mxRectangle width="192.65517241379317" height="30" as="alternateBounds" />
          </mxGeometry>
        </mxCell>
        <mxCell id="NT3E-wE3VGaJPyhKOF_r-202" value="" style="edgeStyle=entityRelationEdgeStyle;fontSize=12;html=1;endArrow=ERzeroToMany;startArrow=ERmandOne;rounded=0;entryX=0;entryY=0.5;entryDx=0;entryDy=0;" edge="1" parent="1" target="NT3E-wE3VGaJPyhKOF_r-65">
          <mxGeometry width="100" height="100" relative="1" as="geometry">
            <mxPoint x="550" y="940" as="sourcePoint" />
            <mxPoint x="767.75" y="911" as="targetPoint" />
          </mxGeometry>
        </mxCell>
        <mxCell id="NT3E-wE3VGaJPyhKOF_r-203" value="" style="edgeStyle=entityRelationEdgeStyle;fontSize=12;html=1;endArrow=ERoneToMany;startArrow=ERmandOne;rounded=0;exitX=1;exitY=0.5;exitDx=0;exitDy=0;entryX=0;entryY=0.5;entryDx=0;entryDy=0;" edge="1" parent="1" source="NT3E-wE3VGaJPyhKOF_r-62" target="NT3E-wE3VGaJPyhKOF_r-84">
          <mxGeometry width="100" height="100" relative="1" as="geometry">
            <mxPoint x="676" y="1014" as="sourcePoint" />
            <mxPoint x="776" y="914" as="targetPoint" />
          </mxGeometry>
        </mxCell>
        <mxCell id="NT3E-wE3VGaJPyhKOF_r-204" value="ProductSuppliers" style="shape=table;startSize=30;container=1;collapsible=1;childLayout=tableLayout;fixedRows=1;rowLines=0;fontStyle=1;align=center;resizeLast=1;html=1;" vertex="1" parent="1">
          <mxGeometry x="690" y="160" width="225.18518518518505" height="120" as="geometry">
            <mxRectangle x="398" y="400" width="130" height="30" as="alternateBounds" />
          </mxGeometry>
        </mxCell>
        <mxCell id="NT3E-wE3VGaJPyhKOF_r-205" value="" style="shape=tableRow;horizontal=0;startSize=0;swimlaneHead=0;swimlaneBody=0;fillColor=none;collapsible=0;dropTarget=0;points=[[0,0.5],[1,0.5]];portConstraint=eastwest;top=0;left=0;right=0;bottom=1;" vertex="1" parent="NT3E-wE3VGaJPyhKOF_r-204">
          <mxGeometry y="30" width="225.18518518518505" height="30" as="geometry" />
        </mxCell>
        <mxCell id="NT3E-wE3VGaJPyhKOF_r-206" value="PK" style="shape=partialRectangle;connectable=0;fillColor=none;top=0;left=0;bottom=0;right=0;fontStyle=1;overflow=hidden;whiteSpace=wrap;html=1;" vertex="1" parent="NT3E-wE3VGaJPyhKOF_r-205">
          <mxGeometry width="30" height="30" as="geometry">
            <mxRectangle width="30" height="30" as="alternateBounds" />
          </mxGeometry>
        </mxCell>
        <mxCell id="NT3E-wE3VGaJPyhKOF_r-207" value="ProductSupplier_ID (INTEGER)" style="shape=partialRectangle;connectable=0;fillColor=none;top=0;left=0;bottom=0;right=0;align=left;spacingLeft=6;fontStyle=5;overflow=hidden;whiteSpace=wrap;html=1;" vertex="1" parent="NT3E-wE3VGaJPyhKOF_r-205">
          <mxGeometry x="30" width="195.18518518518505" height="30" as="geometry">
            <mxRectangle width="195.18518518518505" height="30" as="alternateBounds" />
          </mxGeometry>
        </mxCell>
        <mxCell id="NT3E-wE3VGaJPyhKOF_r-208" value="" style="shape=tableRow;horizontal=0;startSize=0;swimlaneHead=0;swimlaneBody=0;fillColor=none;collapsible=0;dropTarget=0;points=[[0,0.5],[1,0.5]];portConstraint=eastwest;top=0;left=0;right=0;bottom=0;" vertex="1" parent="NT3E-wE3VGaJPyhKOF_r-204">
          <mxGeometry y="60" width="225.18518518518505" height="30" as="geometry" />
        </mxCell>
        <mxCell id="NT3E-wE3VGaJPyhKOF_r-209" value="" style="shape=partialRectangle;connectable=0;fillColor=none;top=0;left=0;bottom=0;right=0;editable=1;overflow=hidden;whiteSpace=wrap;html=1;" vertex="1" parent="NT3E-wE3VGaJPyhKOF_r-208">
          <mxGeometry width="30" height="30" as="geometry">
            <mxRectangle width="30" height="30" as="alternateBounds" />
          </mxGeometry>
        </mxCell>
        <mxCell id="NT3E-wE3VGaJPyhKOF_r-210" value="Product_ID (INTEGER)" style="shape=partialRectangle;connectable=0;fillColor=none;top=0;left=0;bottom=0;right=0;align=left;spacingLeft=6;overflow=hidden;whiteSpace=wrap;html=1;" vertex="1" parent="NT3E-wE3VGaJPyhKOF_r-208">
          <mxGeometry x="30" width="195.18518518518505" height="30" as="geometry">
            <mxRectangle width="195.18518518518505" height="30" as="alternateBounds" />
          </mxGeometry>
        </mxCell>
        <mxCell id="NT3E-wE3VGaJPyhKOF_r-211" value="" style="shape=tableRow;horizontal=0;startSize=0;swimlaneHead=0;swimlaneBody=0;fillColor=none;collapsible=0;dropTarget=0;points=[[0,0.5],[1,0.5]];portConstraint=eastwest;top=0;left=0;right=0;bottom=0;" vertex="1" parent="NT3E-wE3VGaJPyhKOF_r-204">
          <mxGeometry y="90" width="225.18518518518505" height="30" as="geometry" />
        </mxCell>
        <mxCell id="NT3E-wE3VGaJPyhKOF_r-212" value="" style="shape=partialRectangle;connectable=0;fillColor=none;top=0;left=0;bottom=0;right=0;editable=1;overflow=hidden;whiteSpace=wrap;html=1;" vertex="1" parent="NT3E-wE3VGaJPyhKOF_r-211">
          <mxGeometry width="30" height="30" as="geometry">
            <mxRectangle width="30" height="30" as="alternateBounds" />
          </mxGeometry>
        </mxCell>
        <mxCell id="NT3E-wE3VGaJPyhKOF_r-213" value="Supplier_ID (INTEGER)" style="shape=partialRectangle;connectable=0;fillColor=none;top=0;left=0;bottom=0;right=0;align=left;spacingLeft=6;overflow=hidden;whiteSpace=wrap;html=1;" vertex="1" parent="NT3E-wE3VGaJPyhKOF_r-211">
          <mxGeometry x="30" width="195.18518518518505" height="30" as="geometry">
            <mxRectangle width="195.18518518518505" height="30" as="alternateBounds" />
          </mxGeometry>
        </mxCell>
        <mxCell id="NT3E-wE3VGaJPyhKOF_r-217" value="" style="edgeStyle=entityRelationEdgeStyle;fontSize=12;html=1;endArrow=ERoneToMany;startArrow=ERoneToMany;rounded=0;entryX=0;entryY=0.5;entryDx=0;entryDy=0;" edge="1" parent="1" target="NT3E-wE3VGaJPyhKOF_r-190">
          <mxGeometry width="100" height="100" relative="1" as="geometry">
            <mxPoint x="560" y="470" as="sourcePoint" />
            <mxPoint x="608" y="241" as="targetPoint" />
          </mxGeometry>
        </mxCell>
        <mxCell id="NT3E-wE3VGaJPyhKOF_r-218" value="" style="edgeStyle=entityRelationEdgeStyle;fontSize=12;html=1;endArrow=ERoneToMany;startArrow=ERoneToMany;rounded=0;exitX=1;exitY=0.5;exitDx=0;exitDy=0;entryX=0;entryY=0.5;entryDx=0;entryDy=0;" edge="1" parent="1" source="NT3E-wE3VGaJPyhKOF_r-193" target="NT3E-wE3VGaJPyhKOF_r-24">
          <mxGeometry width="100" height="100" relative="1" as="geometry">
            <mxPoint x="1039" y="343" as="sourcePoint" />
            <mxPoint x="1145" y="240" as="targetPoint" />
          </mxGeometry>
        </mxCell>
        <mxCell id="NT3E-wE3VGaJPyhKOF_r-219" value="" style="edgeStyle=entityRelationEdgeStyle;fontSize=12;html=1;endArrow=ERoneToMany;startArrow=ERoneToMany;rounded=0;entryX=0;entryY=0.5;entryDx=0;entryDy=0;" edge="1" parent="1" target="NT3E-wE3VGaJPyhKOF_r-208">
          <mxGeometry width="100" height="100" relative="1" as="geometry">
            <mxPoint x="560" y="470" as="sourcePoint" />
            <mxPoint x="769" y="501" as="targetPoint" />
            <Array as="points">
              <mxPoint x="720" y="563" />
            </Array>
          </mxGeometry>
        </mxCell>
        <mxCell id="NT3E-wE3VGaJPyhKOF_r-225" value="" style="edgeStyle=entityRelationEdgeStyle;fontSize=12;html=1;endArrow=ERoneToMany;startArrow=ERoneToMany;rounded=0;exitX=1;exitY=0.5;exitDx=0;exitDy=0;entryX=0;entryY=0.5;entryDx=0;entryDy=0;" edge="1" parent="1" source="NT3E-wE3VGaJPyhKOF_r-211" target="NT3E-wE3VGaJPyhKOF_r-113">
          <mxGeometry width="100" height="100" relative="1" as="geometry">
            <mxPoint x="1009.37" y="400" as="sourcePoint" />
            <mxPoint x="1089.37" y="400" as="targetPoint" />
          </mxGeometry>
        </mxCell>
        <mxCell id="NT3E-wE3VGaJPyhKOF_r-227" value="" style="endArrow=none;html=1;rounded=0;exitX=1;exitY=0.5;exitDx=0;exitDy=0;" edge="1" parent="1" source="NT3E-wE3VGaJPyhKOF_r-37">
          <mxGeometry relative="1" as="geometry">
            <mxPoint x="530" y="940" as="sourcePoint" />
            <mxPoint x="550" y="925" as="targetPoint" />
          </mxGeometry>
        </mxCell>
        <mxCell id="NT3E-wE3VGaJPyhKOF_r-228" value="" style="endArrow=none;html=1;rounded=0;" edge="1" parent="1">
          <mxGeometry relative="1" as="geometry">
            <mxPoint x="550" y="910" as="sourcePoint" />
            <mxPoint x="550" y="940" as="targetPoint" />
          </mxGeometry>
        </mxCell>
        <mxCell id="NT3E-wE3VGaJPyhKOF_r-229" value="" style="edgeStyle=entityRelationEdgeStyle;fontSize=12;html=1;endArrow=ERzeroToMany;startArrow=ERmandOne;rounded=0;entryX=0;entryY=0.5;entryDx=0;entryDy=0;" edge="1" parent="1" target="NT3E-wE3VGaJPyhKOF_r-132">
          <mxGeometry width="100" height="100" relative="1" as="geometry">
            <mxPoint x="550" y="910" as="sourcePoint" />
            <mxPoint x="720" y="950" as="targetPoint" />
          </mxGeometry>
        </mxCell>
        <mxCell id="NT3E-wE3VGaJPyhKOF_r-230" value="" style="endArrow=none;html=1;rounded=0;exitX=1;exitY=0.5;exitDx=0;exitDy=0;" edge="1" parent="1" source="NT3E-wE3VGaJPyhKOF_r-5">
          <mxGeometry relative="1" as="geometry">
            <mxPoint x="550" y="480" as="sourcePoint" />
            <mxPoint x="560" y="485" as="targetPoint" />
          </mxGeometry>
        </mxCell>
        <mxCell id="NT3E-wE3VGaJPyhKOF_r-231" value="" style="endArrow=none;html=1;rounded=0;" edge="1" parent="1">
          <mxGeometry relative="1" as="geometry">
            <mxPoint x="560" y="470" as="sourcePoint" />
            <mxPoint x="560" y="500" as="targetPoint" />
          </mxGeometry>
        </mxCell>
        <mxCell id="NT3E-wE3VGaJPyhKOF_r-232" value="" style="edgeStyle=entityRelationEdgeStyle;fontSize=12;html=1;endArrow=ERzeroToMany;startArrow=ERmandOne;rounded=0;entryX=0;entryY=0.5;entryDx=0;entryDy=0;" edge="1" parent="1" target="NT3E-wE3VGaJPyhKOF_r-135">
          <mxGeometry width="100" height="100" relative="1" as="geometry">
            <mxPoint x="560" y="500" as="sourcePoint" />
            <mxPoint x="652" y="640" as="targetPoint" />
          </mxGeometry>
        </mxCell>
        <mxCell id="NT3E-wE3VGaJPyhKOF_r-233" value="" style="edgeStyle=entityRelationEdgeStyle;fontSize=12;html=1;endArrow=ERmany;startArrow=ERmany;rounded=0;exitX=1;exitY=0.5;exitDx=0;exitDy=0;entryX=0;entryY=0.5;entryDx=0;entryDy=0;" edge="1" parent="1" source="NT3E-wE3VGaJPyhKOF_r-103" target="NT3E-wE3VGaJPyhKOF_r-145">
          <mxGeometry width="100" height="100" relative="1" as="geometry">
            <mxPoint x="1050" y="510" as="sourcePoint" />
            <mxPoint x="1150" y="410" as="targetPoint" />
          </mxGeometry>
        </mxCell>
        <mxCell id="NT3E-wE3VGaJPyhKOF_r-234" value="" style="edgeStyle=entityRelationEdgeStyle;fontSize=12;html=1;endArrow=ERzeroToMany;startArrow=ERmandOne;rounded=0;entryX=0;entryY=0.5;entryDx=0;entryDy=0;" edge="1" parent="1" target="NT3E-wE3VGaJPyhKOF_r-100">
          <mxGeometry width="100" height="100" relative="1" as="geometry">
            <mxPoint x="560" y="500" as="sourcePoint" />
            <mxPoint x="740" y="825" as="targetPoint" />
          </mxGeometry>
        </mxCell>
        <mxCell id="NT3E-wE3VGaJPyhKOF_r-235" value="" style="edgeStyle=entityRelationEdgeStyle;fontSize=12;html=1;endArrow=ERmandOne;startArrow=ERmandOne;rounded=0;entryX=0;entryY=0.5;entryDx=0;entryDy=0;exitX=1;exitY=0.5;exitDx=0;exitDy=0;" edge="1" parent="1" source="NT3E-wE3VGaJPyhKOF_r-62" target="NT3E-wE3VGaJPyhKOF_r-174">
          <mxGeometry width="100" height="100" relative="1" as="geometry">
            <mxPoint x="950" y="1120" as="sourcePoint" />
            <mxPoint x="1090" y="1150" as="targetPoint" />
          </mxGeometry>
        </mxCell>
        <mxCell id="NT3E-wE3VGaJPyhKOF_r-236" value="" style="edgeStyle=entityRelationEdgeStyle;fontSize=12;html=1;endArrow=ERzeroToMany;startArrow=ERmandOne;rounded=0;entryX=1;entryY=0.5;entryDx=0;entryDy=0;exitX=0;exitY=0.5;exitDx=0;exitDy=0;" edge="1" parent="1" source="NT3E-wE3VGaJPyhKOF_r-37" target="NT3E-wE3VGaJPyhKOF_r-161">
          <mxGeometry width="100" height="100" relative="1" as="geometry">
            <mxPoint x="200" y="930" as="sourcePoint" />
            <mxPoint x="160" y="860" as="targetPoint" />
          </mxGeometry>
        </mxCell>
        <mxCell id="NT3E-wE3VGaJPyhKOF_r-237" value="" style="edgeStyle=entityRelationEdgeStyle;fontSize=12;html=1;endArrow=ERzeroToMany;startArrow=ERmandOne;rounded=0;entryX=1;entryY=0.5;entryDx=0;entryDy=0;exitX=0;exitY=0.5;exitDx=0;exitDy=0;" edge="1" parent="1" source="NT3E-wE3VGaJPyhKOF_r-5" target="NT3E-wE3VGaJPyhKOF_r-164">
          <mxGeometry width="100" height="100" relative="1" as="geometry">
            <mxPoint x="340" y="955" as="sourcePoint" />
            <mxPoint x="183" y="795" as="targetPoint" />
          </mxGeometry>
        </mxCell>
        <mxCell id="NT3E-wE3VGaJPyhKOF_r-238" value="" style="edgeStyle=entityRelationEdgeStyle;fontSize=12;html=1;endArrow=ERoneToMany;startArrow=ERmandOne;rounded=0;entryX=0;entryY=0.5;entryDx=0;entryDy=0;" edge="1" parent="1" target="NT3E-wE3VGaJPyhKOF_r-87">
          <mxGeometry width="100" height="100" relative="1" as="geometry">
            <mxPoint x="560" y="500" as="sourcePoint" />
            <mxPoint x="940" y="550" as="targetPoint" />
          </mxGeometry>
        </mxCell>
      </root>
    </mxGraphModel>
  </diagram>
</mxfile>
